<svg width="400" height="400" viewBox="0 0 400 400" fill="none" xmlns="http://www.w3.org/2000/svg">
<path d="M237.773 110.817H235.95V60.8941C235.95 53.2309 232.906 45.8816 227.488 40.4629C222.069 35.0442 214.72 32 207.056 32H101.288C97.4933 32 93.736 32.7473 90.2304 34.1994C86.7248 35.6515 83.5395 37.7798 80.8565 40.4628C78.1734 43.1459 76.0451 46.3311 74.593 49.8367C73.1409 53.3423 72.3936 57.0996 72.3936 60.894V334.776C72.3936 338.57 73.1409 342.327 74.593 345.833C76.045 349.338 78.1734 352.524 80.8564 355.207C83.5395 357.89 86.7247 360.018 90.2303 361.47C93.7359 362.922 97.4932 363.67 101.288 363.67H207.056C214.719 363.67 222.069 360.626 227.487 355.207C232.906 349.788 235.95 342.439 235.95 334.776V146.353H237.773L237.773 110.817Z" fill="#3F3D56"/>
<path d="M208.222 39.5171H194.416C195.051 41.0737 195.293 42.7626 195.121 44.4349C194.95 46.1072 194.37 47.7117 193.432 49.107C192.494 50.5023 191.228 51.6456 189.744 52.4361C188.261 53.2267 186.605 53.6402 184.924 53.6404H124.331C122.65 53.6402 120.994 53.2267 119.511 52.4362C118.027 51.6456 116.761 50.5023 115.823 49.107C114.885 47.7117 114.305 46.1072 114.133 44.4349C113.962 42.7626 114.204 41.0737 114.839 39.5171H101.944C96.2212 39.5171 90.7328 41.7904 86.6862 45.8371C82.6396 49.8837 80.3662 55.3721 80.3662 61.0948V334.575C80.3662 337.408 80.9243 340.214 82.0087 342.832C83.0931 345.45 84.6825 347.829 86.6862 349.832C88.6899 351.836 91.0686 353.425 93.6865 354.51C96.3045 355.594 99.1104 356.152 101.944 356.152H208.222C211.056 356.152 213.862 355.594 216.48 354.51C219.097 353.425 221.476 351.836 223.48 349.832C225.484 347.829 227.073 345.45 228.157 342.832C229.242 340.214 229.8 337.408 229.8 334.575V61.0948C229.8 58.2612 229.242 55.4553 228.157 52.8374C227.073 50.2194 225.484 47.8407 223.48 45.837C221.476 43.8334 219.097 42.244 216.479 41.1596C213.862 40.0752 211.056 39.5171 208.222 39.5171Z" fill="white"/>
<path d="M154.899 90.4463H93.1006V196.019H154.899V90.4463Z" fill="#E6E6E6"/>
<path d="M216.88 204.289H165.517V323.812H216.88V204.289Z" fill="#E6E6E6"/>
<path d="M217.065 90.4463H165.566V119.506H217.065V90.4463Z" fill="#E6E6E6"/>
<path d="M217.065 127.599H165.566V158.866H217.065V127.599Z" fill="#6C63FF"/>
<path d="M217.065 166.959H165.566V196.019H217.065V166.959Z" fill="#E6E6E6"/>
<path d="M154.976 204.289H93.1768V250.297H154.976V204.289Z" fill="#E6E6E6"/>
<path d="M154.976 259.215H93.1768V323.908H154.976V259.215Z" fill="#E6E6E6"/>
<path d="M295.349 163.241C295.349 173.287 286.059 171.768 274.6 171.768C263.14 171.768 253.851 173.287 253.851 163.241C253.851 153.194 258.388 135.386 274.6 135.386C291.369 135.386 295.349 153.194 295.349 163.241Z" fill="#2F2E41"/>
<path d="M216.052 144.97C215.681 145.72 215.48 146.541 215.461 147.376C215.443 148.212 215.608 149.041 215.944 149.806C216.281 150.571 216.781 151.253 217.41 151.803C218.039 152.354 218.78 152.76 219.583 152.993L220.629 173.28L229.13 167.023L226.834 148.717C227.136 147.343 226.923 145.906 226.236 144.678C225.55 143.45 224.436 142.517 223.107 142.055C221.778 141.593 220.326 141.635 219.025 142.172C217.725 142.709 216.667 143.705 216.052 144.97Z" fill="#FFB8B8"/>
<path d="M309.253 259.621C309.715 258.924 310.018 258.134 310.141 257.308C310.264 256.481 310.205 255.638 309.967 254.837C309.728 254.036 309.318 253.296 308.763 252.671C308.208 252.046 307.523 251.55 306.756 251.219L308.264 230.96L299.044 236.102L299.026 254.551C298.554 255.877 298.585 257.329 299.112 258.634C299.64 259.938 300.628 261.004 301.888 261.629C303.149 262.253 304.595 262.394 305.952 262.024C307.31 261.654 308.484 260.799 309.253 259.621Z" fill="#FFB8B8"/>
<path d="M266.795 357.138H273.764L277.08 330.256L266.794 330.256L266.795 357.138Z" fill="#FFB8B8"/>
<path d="M265.017 354.862L278.742 354.862H278.742C279.891 354.862 281.028 355.088 282.089 355.528C283.151 355.967 284.115 356.611 284.927 357.424C285.739 358.236 286.383 359.2 286.823 360.261C287.263 361.322 287.489 362.46 287.489 363.608V363.893L265.017 363.893L265.017 354.862Z" fill="#2F2E41"/>
<path d="M311.136 357.138H318.105L321.421 330.256L311.135 330.256L311.136 357.138Z" fill="#FFB8B8"/>
<path d="M309.357 354.862L323.082 354.862H323.083C324.232 354.862 325.369 355.088 326.43 355.528C327.491 355.967 328.456 356.611 329.268 357.424C330.08 358.236 330.724 359.2 331.164 360.261C331.603 361.322 331.83 362.46 331.83 363.608V363.893L309.358 363.893L309.357 354.862Z" fill="#2F2E41"/>
<path d="M307.157 248.459L306.854 248.404C304.316 247.944 301.746 247.48 299.487 246.994L299.264 246.946L299.263 246.717C299.224 236.413 299.185 226.111 299.128 215.715C293.733 204.84 291.464 192.679 292.576 180.59L292.589 180.462L292.694 180.387C293.677 179.705 294.824 179.296 296.018 179.204C297.212 179.111 298.408 179.339 299.485 179.862C300.538 180.438 301.438 181.257 302.111 182.251C302.783 183.246 303.208 184.386 303.35 185.578C305.404 196.774 307.531 208.368 309.903 219.793L309.912 219.835L309.908 219.878C309.029 229.195 308.12 238.83 307.188 248.153L307.157 248.459Z" fill="#6C63FF"/>
<path d="M302.614 347.557L302.559 347.295C299.298 331.873 296.151 319.315 293.107 307.17C289.46 292.615 286.004 278.823 282.514 260.975C282.993 283.482 284.106 299.652 285.386 318.239C285.964 326.632 286.561 335.31 287.167 345.442L287.186 345.751L286.876 345.743C275.969 345.464 264.793 344.79 253.986 344.139L253.7 344.122L253.72 343.836C255.766 313.676 256.407 294.079 256.875 279.769C257.863 249.579 258.015 244.938 269.26 219.388C269.687 218.418 272.23 215.554 275.026 215.991L297.152 219.434L297.191 219.629C297.815 222.774 300.913 232.317 305.202 245.525C314.369 273.76 328.222 316.429 332.55 341.864L332.599 342.152L332.31 342.193C326.024 343.086 321.5 344.017 317.125 344.916C312.985 345.768 308.705 346.648 302.879 347.517L302.614 347.557Z" fill="#2F2E41"/>
<path d="M283.384 227.416C277.478 227.416 271.641 225.367 267.457 221.378C266.803 220.997 266.25 220.465 265.845 219.826C265.439 219.187 265.193 218.461 265.127 217.707C265.02 217.016 265.065 216.311 265.259 215.64C265.453 214.968 265.792 214.348 266.252 213.821C262.149 208.856 257.914 203.723 253.859 198.497L253.747 198.353L253.877 198.105C256.53 193.037 259.273 187.796 261.907 182.618C262.09 182.167 262.392 181.773 262.781 181.479C263.169 181.185 263.63 181.001 264.114 180.947C264.534 180.867 264.967 180.875 265.384 180.968C265.802 181.061 266.196 181.239 266.543 181.49L266.548 181.364C266.658 178.743 266.769 176.121 266.882 173.636L266.894 173.371L267.159 173.365C272.225 173.253 277.462 173.137 282.607 172.832L282.803 172.821L285.354 178.513C289.499 178.11 293.669 178.957 297.328 180.943L297.497 181.033L297.477 181.223C296.451 191.005 296.674 200.878 298.141 210.604C298.062 215.044 297.976 219.583 297.075 223.201L297.049 223.307L296.958 223.368C292.937 226.037 288.211 227.446 283.384 227.416Z" fill="#6C63FF"/>
<path d="M261.647 202.722L261.307 202.566C257.339 200.575 253.358 198.367 249.509 196.231L248.977 196.127C238.842 194.093 233.259 192.972 224.115 187.61L224.045 187.569L224.007 187.496C219.428 178.75 218.151 171.105 219.295 159.288L219.317 159.051L219.555 159.032C220.546 158.951 222.161 158.898 223.724 158.845C225.244 158.795 226.815 158.742 227.779 158.667L228.003 158.649L228.072 158.862C229.27 162.562 230.288 166.014 231.365 169.669C232.473 173.425 233.618 177.308 235.012 181.622C240.118 183.089 253.806 182.651 258.062 182.071C260.517 181.819 262.999 182.954 264.711 185.094L264.79 185.193L264.769 185.318C263.832 191.036 262.756 196.788 261.716 202.35L261.647 202.722Z" fill="#6C63FF"/>
<path d="M286.596 163.949C290.294 157.183 287.808 148.699 281.042 145.001C274.276 141.302 265.792 143.788 262.094 150.555C258.395 157.321 260.882 165.804 267.648 169.503C274.414 173.201 282.897 170.715 286.596 163.949Z" fill="#FFB8B8"/>
<path d="M258.397 156.419H263.92L266.356 149.597L266.843 156.419H269.483L270.904 152.44L271.188 156.419H290.8C290.8 152.499 289.243 148.739 286.471 145.968C283.699 143.196 279.94 141.639 276.02 141.639H273.178C269.258 141.639 265.498 143.196 262.726 145.968C259.955 148.739 258.397 152.499 258.397 156.419Z" fill="#2F2E41"/>
<path d="M374.544 364.162H25.4557C25.3349 364.162 25.2189 364.114 25.1335 364.028C25.048 363.943 25 363.827 25 363.706C25 363.585 25.048 363.469 25.1335 363.384C25.2189 363.298 25.3349 363.25 25.4557 363.25H374.544C374.665 363.25 374.781 363.298 374.867 363.384C374.952 363.469 375 363.585 375 363.706C375 363.827 374.952 363.943 374.867 364.028C374.781 364.114 374.665 364.162 374.544 364.162Z" fill="#3F3D56"/>
</svg>
