<svg width="400" height="400" viewBox="0 0 400 400" fill="none" xmlns="http://www.w3.org/2000/svg">
<g clip-path="url(#clip0_1103_897)">
<g clip-path="url(#clip1_1103_897)">
<path d="M98.6786 268.61C89.5794 265.297 81.6807 257.371 80.6787 247.73C89.5121 253.467 100.088 255.891 110.535 254.574C114.562 254.051 118.986 253.05 122.433 255.2C124.577 256.538 125.908 258.914 126.519 261.368C127.129 263.822 127.102 266.384 127.071 268.913L127.354 269.478C117.849 271.325 107.778 271.924 98.6786 268.61Z" fill="#F0F0F0"/>
<path d="M80.8761 247.683C85.513 254.226 92.0917 259.14 99.6778 261.728C101.301 262.314 103.006 262.64 104.731 262.695C106.413 262.694 108.064 262.242 109.512 261.386C110.878 260.615 112.187 259.668 113.717 259.243C114.503 259.037 115.324 259 116.125 259.134C116.927 259.268 117.691 259.57 118.368 260.02C120.084 261.098 121.31 262.729 122.454 264.366C123.724 266.183 125.015 268.091 126.997 269.194C127.237 269.328 127.016 269.693 126.776 269.56C123.327 267.64 122.05 263.569 119.114 261.094C117.744 259.939 116.018 259.19 114.207 259.563C112.624 259.89 111.274 260.865 109.897 261.658C108.497 262.513 106.908 263.013 105.27 263.112C103.548 263.146 101.833 262.886 100.198 262.343C96.4984 261.181 93.0041 259.443 89.8433 257.195C86.2218 254.648 83.0621 251.5 80.5011 247.887C80.3426 247.663 80.7187 247.46 80.8761 247.683Z" fill="white"/>
<path d="M97.1863 261.038C96.5798 262.253 95.5616 263.213 94.3134 263.746C93.0653 264.279 91.6685 264.351 90.3725 263.948C90.1106 263.866 90.2262 263.454 90.4885 263.537C91.6946 263.914 92.9957 263.847 94.1569 263.349C95.3182 262.85 96.2631 261.952 96.8211 260.817C96.9427 260.571 97.3071 260.793 97.1863 261.038Z" fill="white"/>
<path d="M108.871 261.867C108.016 259.226 106.199 257.003 103.78 255.644C103.54 255.509 103.761 255.144 104.001 255.278C106.515 256.698 108.402 259.014 109.285 261.765C109.369 262.028 108.954 262.128 108.871 261.867Z" fill="white"/>
<path d="M86.7042 254.352C87.0368 253.931 87.2596 253.433 87.3527 252.905C87.4458 252.376 87.4062 251.832 87.2375 251.323C87.1503 251.062 87.5652 250.961 87.6519 251.221C87.8356 251.785 87.8786 252.385 87.777 252.969C87.6755 253.554 87.4325 254.104 87.0694 254.573C87.0388 254.62 86.9915 254.654 86.9371 254.667C86.8827 254.681 86.8252 254.673 86.7764 254.645C86.7282 254.616 86.6935 254.568 86.68 254.513C86.6665 254.458 86.6752 254.4 86.7042 254.352Z" fill="white"/>
<path d="M103.644 224.312C103.703 224.473 103.762 224.635 103.825 224.797C104.631 226.964 105.611 229.062 106.757 231.069C106.843 231.226 106.933 231.383 107.023 231.537C109.834 236.345 113.513 240.588 117.871 244.051C119.607 245.428 121.445 246.67 123.369 247.768C126.026 249.283 129.028 250.715 130.972 252.955C131.178 253.186 131.369 253.43 131.544 253.685L128.02 269.088C127.994 269.119 127.972 269.151 127.946 269.182L127.834 269.804C127.73 269.754 127.625 269.7 127.521 269.651C127.461 269.622 127.402 269.59 127.342 269.561C127.302 269.541 127.263 269.521 127.226 269.505C127.213 269.498 127.199 269.492 127.19 269.486C127.153 269.47 127.12 269.451 127.086 269.436C126.493 269.137 125.901 268.834 125.31 268.526C125.307 268.525 125.307 268.525 125.304 268.521C120.779 266.217 116.543 263.383 112.685 260.08C112.571 259.98 112.454 259.879 112.342 259.772C110.645 258.262 109.074 256.617 107.644 254.852C106.865 253.882 106.135 252.874 105.457 251.831C103.711 249.133 102.4 246.176 101.572 243.07C99.9225 236.877 100.27 230.226 103.4 224.73C103.481 224.589 103.56 224.452 103.644 224.312Z" fill="#F0F0F0"/>
<path d="M103.831 224.391C103.598 232.41 105.895 240.299 110.395 246.937C111.339 248.383 112.504 249.671 113.849 250.754C115.192 251.767 116.782 252.401 118.453 252.59C120.008 252.798 121.622 252.831 123.099 253.413C123.851 253.723 124.529 254.188 125.088 254.778C125.648 255.368 126.076 256.07 126.346 256.837C127.067 258.732 127.065 260.774 126.994 262.77C126.915 264.986 126.798 267.287 127.718 269.363C127.829 269.615 127.433 269.773 127.321 269.522C125.722 265.91 127.151 261.89 126.295 258.144C125.896 256.396 124.968 254.758 123.298 253.965C121.838 253.271 120.173 253.237 118.597 253.04C116.964 252.879 115.396 252.32 114.028 251.412C112.633 250.401 111.42 249.16 110.441 247.742C108.186 244.584 106.441 241.091 105.27 237.39C103.91 233.174 103.281 228.756 103.409 224.328C103.417 224.054 103.839 224.119 103.831 224.391Z" fill="white"/>
<path d="M108.821 244.885C107.606 245.49 106.216 245.642 104.898 245.316C103.581 244.989 102.423 244.204 101.63 243.102C101.471 242.878 101.811 242.619 101.97 242.843C102.707 243.871 103.786 244.602 105.013 244.904C106.24 245.206 107.534 245.058 108.662 244.488C108.908 244.365 109.065 244.762 108.821 244.885Z" fill="white"/>
<path d="M117.651 252.589C118.558 249.965 118.443 247.095 117.33 244.551C117.219 244.3 117.616 244.141 117.726 244.393C118.88 247.041 118.993 250.028 118.043 252.757C117.953 253.017 117.561 252.847 117.651 252.589Z" fill="white"/>
<path d="M104.474 233.229C104.993 233.093 105.47 232.83 105.862 232.464C106.254 232.098 106.55 231.64 106.721 231.131C106.809 230.87 107.2 231.04 107.114 231.3C106.921 231.861 106.594 232.366 106.162 232.771C105.729 233.177 105.204 233.47 104.632 233.625C104.579 233.644 104.521 233.643 104.47 233.621C104.418 233.598 104.377 233.558 104.355 233.506C104.334 233.454 104.335 233.395 104.357 233.343C104.379 233.291 104.421 233.25 104.474 233.229Z" fill="white"/>
<path d="M374.086 268.292C382.709 263.884 389.575 255.046 389.385 245.356C381.323 252.136 371.125 255.843 360.596 255.821C356.535 255.798 352.021 255.348 348.865 257.906C346.901 259.498 345.872 262.019 345.567 264.53C345.263 267.041 345.605 269.58 345.946 272.086L345.734 272.681C355.394 273.345 365.462 272.7 374.086 268.292Z" fill="#F0F0F0"/>
<path d="M389.183 245.332C385.385 252.397 379.46 258.083 372.249 261.585C370.71 262.366 369.058 262.9 367.353 263.166C365.683 263.372 363.99 263.126 362.447 262.455C360.997 261.858 359.582 261.079 358.011 260.846C357.206 260.738 356.387 260.802 355.607 261.034C354.828 261.265 354.107 261.659 353.49 262.189C351.92 263.471 350.903 265.24 349.969 267.005C348.932 268.965 347.886 271.017 346.054 272.356C345.832 272.518 346.096 272.853 346.318 272.691C349.505 270.362 350.273 266.164 352.882 263.347C354.1 262.032 355.721 261.077 357.564 261.224C359.175 261.353 360.635 262.155 362.098 262.772C363.593 263.449 365.231 263.749 366.869 263.646C368.582 263.468 370.252 262.999 371.808 262.259C375.337 260.651 378.591 258.496 381.452 255.876C384.733 252.903 387.483 249.39 389.581 245.489C389.71 245.247 389.312 245.093 389.183 245.332Z" fill="white"/>
<path d="M374.637 260.594C375.389 261.726 376.517 262.553 377.821 262.928C379.125 263.303 380.52 263.203 381.757 262.643C382.007 262.529 381.841 262.135 381.591 262.25C380.441 262.772 379.141 262.866 377.928 262.514C376.714 262.162 375.666 261.387 374.973 260.33C374.822 260.1 374.487 260.366 374.637 260.594Z" fill="white"/>
<path d="M363.143 262.855C363.666 260.128 365.198 257.699 367.431 256.052C367.652 255.889 367.388 255.554 367.167 255.716C364.846 257.435 363.258 259.966 362.719 262.804C362.668 263.075 363.092 263.124 363.143 262.855Z" fill="white"/>
<path d="M363.719 224.94C363.68 225.108 363.641 225.275 363.599 225.444C363.065 227.694 362.349 229.896 361.459 232.03C361.393 232.196 361.323 232.363 361.252 232.527C359.053 237.644 355.923 242.307 352.023 246.281C350.469 247.861 348.798 249.32 347.023 250.645C344.572 252.476 341.769 254.266 340.115 256.728C339.939 256.983 339.779 257.249 339.637 257.524L345.026 272.376C345.055 272.404 345.081 272.433 345.11 272.461L345.298 273.063C345.395 273.001 345.493 272.935 345.589 272.873C345.645 272.837 345.7 272.798 345.756 272.763C345.793 272.738 345.83 272.713 345.865 272.692C345.877 272.684 345.889 272.676 345.898 272.669C345.933 272.649 345.963 272.626 345.995 272.607C346.547 272.237 347.097 271.864 347.645 271.485C347.649 271.484 347.649 271.484 347.651 271.479C351.859 268.636 355.715 265.302 359.138 261.549C359.238 261.436 359.343 261.322 359.441 261.201C360.94 259.495 362.297 257.669 363.498 255.741C364.153 254.683 364.754 253.593 365.298 252.474C366.699 249.581 367.637 246.486 368.078 243.301C368.955 236.953 367.793 230.394 364.011 225.325C363.914 225.195 363.819 225.069 363.719 224.94Z" fill="#F0F0F0"/>
<path d="M363.543 225.042C364.759 232.972 363.448 241.083 359.797 248.225C359.038 249.776 358.04 251.198 356.838 252.438C355.629 253.608 354.129 254.433 352.494 254.827C350.977 255.225 349.379 255.455 347.984 256.215C347.276 256.615 346.661 257.16 346.178 257.814C345.695 258.469 345.356 259.218 345.183 260.013C344.7 261.982 344.952 264.008 345.268 265.98C345.618 268.17 346.017 270.439 345.36 272.612C345.28 272.876 345.693 272.984 345.772 272.721C346.916 268.94 345.004 265.126 345.394 261.303C345.575 259.52 346.295 257.78 347.855 256.787C349.219 255.919 350.867 255.68 352.406 255.29C354.007 254.93 355.495 254.182 356.741 253.113C358.001 251.938 359.053 250.557 359.85 249.029C361.701 245.618 363.003 241.936 363.711 238.12C364.543 233.768 364.625 229.307 363.954 224.928C363.912 224.657 363.501 224.773 363.543 225.042Z" fill="white"/>
<path d="M361.107 245.995C362.387 246.445 363.786 246.426 365.053 245.94C366.32 245.453 367.373 244.532 368.024 243.34C368.155 243.099 367.786 242.884 367.655 243.126C367.051 244.236 366.07 245.095 364.889 245.545C363.708 245.995 362.405 246.008 361.216 245.582C360.957 245.489 360.85 245.903 361.107 245.995Z" fill="white"/>
<path d="M353.289 254.727C352.067 252.234 351.828 249.372 352.621 246.711C352.7 246.447 352.287 246.339 352.208 246.602C351.389 249.373 351.643 252.351 352.92 254.942C353.042 255.189 353.41 254.972 353.289 254.727Z" fill="white"/>
<path d="M363.99 233.892C363.459 233.821 362.953 233.619 362.519 233.304C362.084 232.989 361.735 232.571 361.502 232.087C361.383 231.839 361.015 232.056 361.133 232.303C361.393 232.836 361.78 233.297 362.259 233.646C362.738 233.995 363.295 234.221 363.882 234.305C363.936 234.318 363.994 234.309 364.042 234.281C364.09 234.252 364.126 234.207 364.142 234.153C364.156 234.098 364.148 234.04 364.12 233.991C364.091 233.942 364.045 233.907 363.99 233.892Z" fill="white"/>
<path d="M349.749 133.363H288.994V137.276C288.993 137.476 289.062 137.67 289.189 137.825C289.066 140.883 288.994 144.787 288.994 149.029V253.624C288.994 263.428 289.387 271.405 289.869 271.405H348.874C349.356 271.405 349.749 263.428 349.749 253.624V149.029C349.749 144.787 349.677 140.883 349.554 137.825C349.681 137.67 349.75 137.476 349.749 137.276L349.749 133.363Z" fill="white"/>
<path d="M348.874 271.828H289.869C289.409 271.828 289.105 271.828 288.829 266.212C288.663 262.842 288.571 258.371 288.571 253.624V149.029C288.571 144.929 288.641 140.944 288.766 137.808C288.845 135.926 288.935 134.417 289.034 133.325C289.228 131.187 289.413 130.826 289.869 130.826H348.874C349.33 130.826 349.514 131.187 349.709 133.325C349.808 134.422 349.898 135.93 349.976 137.808L349.976 137.808C350.102 140.941 350.171 144.926 350.171 149.029V253.624C350.171 258.372 350.08 262.842 349.914 266.212C349.637 271.828 349.334 271.828 348.874 271.828ZM290.109 270.982H348.634C348.939 269.826 349.326 263.551 349.326 253.624V149.029C349.326 144.937 349.257 140.965 349.132 137.843C349.054 135.979 348.965 134.484 348.867 133.402C348.829 132.82 348.75 132.242 348.63 131.672H290.113C289.992 132.242 289.913 132.82 289.875 133.402C289.778 134.48 289.689 135.975 289.61 137.843C289.485 140.967 289.416 144.94 289.416 149.029V253.624C289.416 263.551 289.803 269.826 290.109 270.982Z" fill="#E4E4E4"/>
<path d="M348.874 131.249H289.869C289.637 131.249 289.415 131.341 289.251 131.505C289.087 131.67 288.995 131.892 288.994 132.124V137.276C288.993 137.476 289.062 137.67 289.189 137.825C289.271 137.927 289.374 138.009 289.492 138.065C289.61 138.121 289.738 138.151 289.869 138.151H348.874C349.005 138.151 349.133 138.121 349.251 138.065C349.369 138.009 349.472 137.927 349.554 137.825C349.681 137.67 349.75 137.476 349.749 137.276V132.124C349.748 131.892 349.656 131.67 349.492 131.505C349.328 131.341 349.106 131.249 348.874 131.249Z" fill="#CACACA"/>
<path d="M294.073 135.692C294.759 135.692 295.315 135.135 295.315 134.448C295.315 133.762 294.759 133.205 294.073 133.205C293.387 133.205 292.831 133.762 292.831 134.448C292.831 135.135 293.387 135.692 294.073 135.692Z" fill="white"/>
<path d="M298.787 135.692C299.473 135.692 300.029 135.135 300.029 134.448C300.029 133.762 299.473 133.205 298.787 133.205C298.101 133.205 297.545 133.762 297.545 134.448C297.545 135.135 298.101 135.692 298.787 135.692Z" fill="white"/>
<path d="M303.502 135.692C304.188 135.692 304.744 135.135 304.744 134.448C304.744 133.762 304.188 133.205 303.502 133.205C302.816 133.205 302.26 133.762 302.26 134.448C302.26 135.135 302.816 135.692 303.502 135.692Z" fill="white"/>
<path d="M344.256 132.788H338.826C338.72 132.789 338.618 132.831 338.543 132.907C338.468 132.982 338.426 133.084 338.425 133.19C338.423 133.25 338.438 133.31 338.467 133.363C338.499 133.431 338.55 133.489 338.614 133.529C338.677 133.57 338.751 133.591 338.826 133.592H344.256C344.332 133.592 344.406 133.571 344.471 133.53C344.535 133.49 344.586 133.432 344.619 133.363C344.645 133.309 344.658 133.25 344.657 133.19C344.657 133.137 344.647 133.085 344.627 133.036C344.606 132.987 344.577 132.943 344.54 132.906C344.502 132.868 344.458 132.839 344.409 132.819C344.361 132.798 344.308 132.788 344.256 132.788Z" fill="white"/>
<path d="M344.256 134.298H338.826C338.72 134.298 338.618 134.34 338.542 134.416C338.467 134.491 338.425 134.593 338.425 134.7C338.425 134.806 338.467 134.908 338.542 134.984C338.618 135.059 338.72 135.101 338.826 135.101H344.256C344.362 135.101 344.464 135.059 344.539 134.984C344.615 134.908 344.657 134.806 344.657 134.7C344.657 134.593 344.615 134.491 344.539 134.416C344.464 134.34 344.362 134.298 344.256 134.298Z" fill="white"/>
<path d="M344.256 135.808H338.826C338.72 135.808 338.618 135.85 338.542 135.926C338.467 136.001 338.425 136.103 338.425 136.21C338.425 136.316 338.467 136.419 338.542 136.494C338.618 136.569 338.72 136.612 338.826 136.612H344.256C344.362 136.612 344.464 136.569 344.539 136.494C344.615 136.419 344.657 136.316 344.657 136.21C344.657 136.103 344.615 136.001 344.539 135.926C344.464 135.85 344.362 135.808 344.256 135.808Z" fill="white"/>
<path d="M325.242 149.444H314.071C313.51 149.444 312.973 149.667 312.577 150.063C312.181 150.46 311.958 150.998 311.958 151.559V161.244C311.959 161.805 312.182 162.342 312.578 162.738C312.974 163.135 313.511 163.358 314.071 163.359H325.242C325.802 163.357 326.338 163.134 326.734 162.738C327.13 162.341 327.353 161.804 327.355 161.244V151.559C327.354 150.998 327.131 150.461 326.735 150.064C326.339 149.668 325.802 149.445 325.242 149.444Z" fill="#6C63FF"/>
<path d="M339.122 169.686H300.187C299.932 169.686 299.688 169.787 299.508 169.967C299.329 170.147 299.228 170.391 299.228 170.646C299.228 170.901 299.329 171.145 299.508 171.325C299.688 171.505 299.932 171.606 300.187 171.606H339.122C339.376 171.606 339.62 171.505 339.8 171.325C339.98 171.145 340.081 170.901 340.081 170.646C340.081 170.391 339.98 170.147 339.8 169.967C339.62 169.787 339.376 169.686 339.122 169.686Z" fill="#E4E4E4"/>
<path d="M314.975 174.186H300.187C299.932 174.186 299.688 174.287 299.508 174.467C299.329 174.647 299.228 174.892 299.228 175.146C299.228 175.401 299.329 175.645 299.508 175.825C299.688 176.005 299.932 176.106 300.187 176.106H314.975C315.229 176.106 315.473 176.005 315.653 175.825C315.833 175.645 315.934 175.401 315.934 175.146C315.934 174.892 315.833 174.647 315.653 174.467C315.473 174.287 315.229 174.186 314.975 174.186Z" fill="#E4E4E4"/>
<path d="M325.242 191.315H314.071C313.51 191.316 312.973 191.539 312.577 191.935C312.181 192.332 311.958 192.869 311.958 193.43V203.116C311.959 203.676 312.182 204.214 312.578 204.61C312.974 205.006 313.511 205.229 314.071 205.23H325.242C325.802 205.229 326.338 205.005 326.734 204.609C327.13 204.213 327.353 203.676 327.355 203.116V193.43C327.354 192.87 327.131 192.332 326.735 191.936C326.339 191.539 325.802 191.316 325.242 191.315Z" fill="#6C63FF"/>
<path d="M339.122 211.558H300.187C299.932 211.558 299.688 211.659 299.508 211.839C299.329 212.019 299.228 212.263 299.228 212.518C299.228 212.772 299.329 213.017 299.508 213.197C299.688 213.377 299.932 213.478 300.187 213.478H339.122C339.376 213.478 339.62 213.377 339.8 213.197C339.98 213.017 340.081 212.772 340.081 212.518C340.081 212.263 339.98 212.019 339.8 211.839C339.62 211.659 339.376 211.558 339.122 211.558Z" fill="#E4E4E4"/>
<path d="M314.975 216.058H300.187C299.932 216.058 299.688 216.159 299.508 216.339C299.329 216.519 299.228 216.764 299.228 217.018C299.228 217.273 299.329 217.517 299.508 217.697C299.688 217.877 299.932 217.978 300.187 217.978H314.975C315.229 217.978 315.473 217.877 315.653 217.697C315.833 217.517 315.934 217.273 315.934 217.018C315.934 216.764 315.833 216.519 315.653 216.339C315.473 216.159 315.229 216.058 314.975 216.058Z" fill="#E4E4E4"/>
<path d="M325.242 233.188H314.071C313.51 233.188 312.973 233.411 312.577 233.807C312.181 234.204 311.958 234.741 311.958 235.302V244.988C311.959 245.548 312.182 246.086 312.578 246.482C312.974 246.878 313.511 247.102 314.071 247.102H325.242C325.802 247.101 326.338 246.878 326.734 246.481C327.13 246.085 327.353 245.548 327.355 244.988V235.302C327.354 234.742 327.131 234.204 326.735 233.808C326.339 233.412 325.802 233.188 325.242 233.188Z" fill="#6C63FF"/>
<path d="M339.122 253.43H300.187C299.932 253.43 299.688 253.531 299.508 253.711C299.329 253.891 299.228 254.135 299.228 254.39C299.228 254.644 299.329 254.889 299.508 255.069C299.688 255.249 299.932 255.35 300.187 255.35H339.122C339.376 255.35 339.62 255.249 339.8 255.069C339.98 254.889 340.081 254.644 340.081 254.39C340.081 254.135 339.98 253.891 339.8 253.711C339.62 253.531 339.376 253.43 339.122 253.43Z" fill="#E4E4E4"/>
<path d="M314.975 257.93H300.187C299.932 257.93 299.688 258.031 299.508 258.211C299.329 258.391 299.228 258.635 299.228 258.89C299.228 259.144 299.329 259.389 299.508 259.569C299.688 259.749 299.932 259.85 300.187 259.85H314.975C315.229 259.85 315.473 259.749 315.653 259.569C315.833 259.389 315.934 259.144 315.934 258.89C315.934 258.635 315.833 258.391 315.653 258.211C315.473 258.031 315.229 257.93 314.975 257.93Z" fill="#E4E4E4"/>
<path d="M272.427 128.317C272.426 128.085 272.334 127.863 272.17 127.699C272.006 127.535 271.784 127.442 271.552 127.442H115.367C115.135 127.442 114.913 127.535 114.749 127.699C114.585 127.863 114.493 128.085 114.492 128.317V133.469C114.491 133.683 114.571 133.89 114.716 134.048C114.577 137.546 114.492 142.156 114.492 147.206V263.479C114.492 274.382 114.885 283.247 115.367 283.247H271.552C272.034 283.247 272.427 274.382 272.427 263.479V147.206C272.427 142.156 272.342 137.546 272.203 134.048C272.348 133.89 272.428 133.683 272.427 133.469V128.317Z" fill="white"/>
<path d="M271.553 283.67H115.368C114.89 283.67 114.602 283.67 114.327 277.471C114.162 273.726 114.07 268.757 114.07 263.479V147.206C114.07 142.339 114.15 137.66 114.295 134.032C114.572 127.019 114.889 127.019 115.368 127.019H271.553C272.032 127.019 272.348 127.02 272.626 134.032C272.77 137.657 272.85 142.336 272.85 147.206V263.479C272.85 268.757 272.759 273.726 272.593 277.471C272.319 283.67 272.03 283.67 271.553 283.67ZM115.614 282.825H271.306C271.652 281.499 272.005 274.053 272.005 263.479V147.206C272.005 142.347 271.926 137.68 271.781 134.065C271.605 129.623 271.4 128.271 271.302 127.865H115.619C115.521 128.271 115.315 129.623 115.139 134.065C114.995 137.683 114.915 142.35 114.915 147.206V263.479C114.915 274.053 115.268 281.498 115.614 282.825Z" fill="#E4E4E4"/>
<path d="M271.552 127.442H115.367C115.135 127.442 114.913 127.535 114.749 127.699C114.585 127.863 114.493 128.085 114.492 128.317V133.469C114.491 133.683 114.571 133.89 114.716 134.048C114.797 134.141 114.897 134.216 115.01 134.267C115.122 134.318 115.244 134.344 115.367 134.344H271.552C271.676 134.344 271.797 134.318 271.91 134.267C272.022 134.216 272.122 134.141 272.203 134.048C272.348 133.89 272.428 133.683 272.427 133.469V128.317C272.426 128.085 272.334 127.863 272.17 127.699C272.006 127.535 271.784 127.442 271.552 127.442Z" fill="#CACACA"/>
<path d="M119.571 131.885C120.257 131.885 120.813 131.328 120.813 130.642C120.813 129.955 120.257 129.398 119.571 129.398C118.885 129.398 118.329 129.955 118.329 130.642C118.329 131.328 118.885 131.885 119.571 131.885Z" fill="white"/>
<path d="M124.286 131.885C124.972 131.885 125.528 131.328 125.528 130.642C125.528 129.955 124.972 129.398 124.286 129.398C123.6 129.398 123.044 129.955 123.044 130.642C123.044 131.328 123.6 131.885 124.286 131.885Z" fill="white"/>
<path d="M129 131.885C129.686 131.885 130.242 131.328 130.242 130.642C130.242 129.955 129.686 129.398 129 129.398C128.314 129.398 127.758 129.955 127.758 130.642C127.758 131.328 128.314 131.885 129 131.885Z" fill="white"/>
<path d="M266.934 128.981H261.505C261.398 128.981 261.296 129.024 261.221 129.099C261.146 129.174 261.104 129.277 261.104 129.383C261.104 129.49 261.146 129.592 261.221 129.667C261.296 129.743 261.398 129.785 261.505 129.785H266.934C267.041 129.785 267.143 129.743 267.218 129.667C267.293 129.592 267.336 129.49 267.336 129.383C267.336 129.277 267.293 129.174 267.218 129.099C267.143 129.024 267.041 128.981 266.934 128.981Z" fill="white"/>
<path d="M266.934 130.491H261.505C261.398 130.491 261.296 130.534 261.221 130.609C261.146 130.684 261.104 130.786 261.104 130.893C261.104 131 261.146 131.102 261.221 131.177C261.296 131.252 261.398 131.295 261.505 131.295H266.934C267.041 131.295 267.143 131.252 267.218 131.177C267.293 131.102 267.336 131 267.336 130.893C267.336 130.786 267.293 130.684 267.218 130.609C267.143 130.534 267.041 130.491 266.934 130.491Z" fill="white"/>
<path d="M266.934 132.001H261.505C261.398 132.001 261.296 132.044 261.221 132.119C261.146 132.195 261.104 132.297 261.104 132.403C261.104 132.51 261.146 132.612 261.221 132.687C261.296 132.763 261.398 132.805 261.505 132.805H266.934C267.041 132.805 267.143 132.763 267.218 132.687C267.293 132.612 267.336 132.51 267.336 132.403C267.336 132.297 267.293 132.195 267.218 132.119C267.143 132.044 267.041 132.001 266.934 132.001Z" fill="white"/>
<path d="M165.85 153.25H147.571C146.655 153.251 145.777 153.616 145.129 154.265C144.481 154.913 144.116 155.793 144.115 156.71V172.558C144.116 173.475 144.481 174.354 145.129 175.003C145.777 175.651 146.655 176.016 147.571 176.017H165.85C166.766 176.016 167.645 175.651 168.292 175.003C168.94 174.354 169.305 173.475 169.306 172.558V156.71C169.305 155.793 168.94 154.913 168.292 154.265C167.645 153.616 166.766 153.251 165.85 153.25Z" fill="#6C63FF"/>
<path d="M241.24 159.379H177.533C177.116 159.379 176.717 159.544 176.423 159.839C176.128 160.134 175.963 160.533 175.963 160.95C175.963 161.367 176.128 161.767 176.423 162.061C176.717 162.356 177.116 162.521 177.533 162.521H241.24C241.657 162.521 242.056 162.356 242.35 162.061C242.645 161.767 242.81 161.367 242.81 160.95C242.81 160.533 242.645 160.134 242.35 159.839C242.056 159.544 241.657 159.379 241.24 159.379Z" fill="#E4E4E4"/>
<path d="M201.73 166.742H177.533C177.116 166.742 176.717 166.908 176.423 167.202C176.128 167.497 175.963 167.897 175.963 168.313C175.963 168.73 176.128 169.13 176.423 169.424C176.717 169.719 177.116 169.885 177.533 169.885H201.73C202.147 169.885 202.546 169.719 202.84 169.424C203.135 169.13 203.3 168.73 203.3 168.313C203.3 167.897 203.135 167.497 202.84 167.202C202.546 166.908 202.147 166.742 201.73 166.742Z" fill="#E4E4E4"/>
<path d="M165.85 195.545H147.571C146.655 195.546 145.777 195.911 145.129 196.56C144.481 197.208 144.116 198.087 144.115 199.005V214.853C144.116 215.77 144.481 216.649 145.129 217.298C145.777 217.946 146.655 218.311 147.571 218.312H165.85C166.766 218.311 167.645 217.946 168.292 217.298C168.94 216.649 169.305 215.77 169.306 214.853V199.005C169.305 198.087 168.94 197.208 168.292 196.56C167.645 195.911 166.766 195.546 165.85 195.545Z" fill="#6C63FF"/>
<path d="M241.24 201.673H177.533C177.116 201.673 176.717 201.839 176.423 202.134C176.128 202.428 175.963 202.828 175.963 203.245C175.963 203.661 176.128 204.061 176.423 204.356C176.717 204.65 177.116 204.816 177.533 204.816H241.24C241.657 204.816 242.056 204.65 242.35 204.356C242.645 204.061 242.81 203.661 242.81 203.245C242.81 202.828 242.645 202.428 242.35 202.134C242.056 201.839 241.657 201.673 241.24 201.673Z" fill="#E4E4E4"/>
<path d="M201.73 209.037H177.533C177.116 209.037 176.717 209.203 176.423 209.497C176.128 209.792 175.963 210.192 175.963 210.608C175.963 211.025 176.128 211.425 176.423 211.719C176.717 212.014 177.116 212.18 177.533 212.18H201.73C202.147 212.18 202.546 212.014 202.84 211.719C203.135 211.425 203.3 211.025 203.3 210.608C203.3 210.192 203.135 209.792 202.84 209.497C202.546 209.203 202.147 209.037 201.73 209.037Z" fill="#E4E4E4"/>
<path d="M165.85 237.84H147.571C146.655 237.841 145.777 238.206 145.129 238.854C144.481 239.503 144.116 240.382 144.115 241.3V257.147C144.116 258.065 144.481 258.944 145.129 259.593C145.777 260.241 146.655 260.606 147.571 260.607H165.85C166.766 260.606 167.645 260.241 168.292 259.593C168.94 258.944 169.305 258.065 169.306 257.147V241.3C169.305 240.382 168.94 239.503 168.292 238.854C167.645 238.206 166.766 237.841 165.85 237.84Z" fill="#6C63FF"/>
<path d="M241.24 243.968H177.533C177.116 243.968 176.717 244.134 176.423 244.428C176.128 244.723 175.963 245.123 175.963 245.539C175.963 245.956 176.128 246.356 176.423 246.651C176.717 246.945 177.116 247.111 177.533 247.111H241.24C241.657 247.111 242.056 246.945 242.35 246.651C242.645 246.356 242.81 245.956 242.81 245.539C242.81 245.123 242.645 244.723 242.35 244.428C242.056 244.134 241.657 243.968 241.24 243.968Z" fill="#E4E4E4"/>
<path d="M201.73 251.332H177.533C177.116 251.332 176.717 251.498 176.423 251.792C176.128 252.087 175.963 252.487 175.963 252.903C175.963 253.32 176.128 253.72 176.423 254.014C176.717 254.309 177.116 254.475 177.533 254.475H201.73C202.147 254.475 202.546 254.309 202.84 254.014C203.135 253.72 203.3 253.32 203.3 252.903C203.3 252.487 203.135 252.087 202.84 251.792C202.546 251.498 202.147 251.332 201.73 251.332Z" fill="#E4E4E4"/>
<path d="M299.441 311.162H194.804C194.321 311.162 193.929 303.739 193.929 294.615V197.28C193.929 188.155 194.321 180.733 194.804 180.733H299.441C299.923 180.733 300.316 188.155 300.316 197.28V294.615C300.316 303.739 299.923 311.162 299.441 311.162Z" fill="white"/>
<path d="M299.44 311.585H194.803C194.361 311.585 194.041 311.585 193.763 306.333C193.597 303.196 193.506 299.035 193.506 294.615V197.28C193.506 192.86 193.597 188.699 193.763 185.563C194.041 180.31 194.361 180.31 194.803 180.31H299.44C299.883 180.31 300.203 180.31 300.481 185.563C300.647 188.699 300.738 192.86 300.738 197.28V294.615C300.738 299.035 300.647 303.196 300.481 306.333C300.203 311.585 299.883 311.585 299.44 311.585ZM195.037 310.739H299.207C299.51 309.643 299.893 303.805 299.893 294.615V197.28C299.893 188.09 299.51 182.252 299.207 181.156H195.037C194.734 182.252 194.351 188.09 194.351 197.28V294.615C194.351 303.805 194.734 309.643 195.037 310.739Z" fill="#E4E4E4"/>
<path d="M299.441 187.636H194.804C194.572 187.635 194.349 187.543 194.185 187.379C194.021 187.215 193.929 186.992 193.929 186.76V181.609C193.929 181.376 194.021 181.154 194.185 180.99C194.349 180.826 194.572 180.733 194.804 180.733H299.441C299.673 180.733 299.895 180.826 300.059 180.99C300.223 181.154 300.315 181.376 300.316 181.609V186.76C300.315 186.992 300.223 187.215 300.059 187.379C299.895 187.543 299.673 187.635 299.441 187.636Z" fill="#CACACA"/>
<path d="M199.006 185.177C199.692 185.177 200.248 184.62 200.248 183.933C200.248 183.247 199.692 182.69 199.006 182.69C198.32 182.69 197.764 183.247 197.764 183.933C197.764 184.62 198.32 185.177 199.006 185.177Z" fill="white"/>
<path d="M203.72 185.177C204.406 185.177 204.962 184.62 204.962 183.933C204.962 183.247 204.406 182.69 203.72 182.69C203.034 182.69 202.478 183.247 202.478 183.933C202.478 184.62 203.034 185.177 203.72 185.177Z" fill="white"/>
<path d="M208.434 185.177C209.12 185.177 209.676 184.62 209.676 183.933C209.676 183.247 209.12 182.69 208.434 182.69C207.748 182.69 207.192 183.247 207.192 183.933C207.192 184.62 207.748 185.177 208.434 185.177Z" fill="white"/>
<path d="M294.821 183.078H289.392C289.286 183.078 289.183 183.035 289.108 182.96C289.033 182.884 288.99 182.782 288.99 182.675C288.99 182.568 289.033 182.466 289.108 182.39C289.183 182.315 289.286 182.272 289.392 182.272H294.821C294.928 182.273 295.03 182.315 295.105 182.391C295.18 182.466 295.222 182.568 295.222 182.675C295.222 182.782 295.18 182.884 295.105 182.959C295.03 183.035 294.928 183.077 294.821 183.078Z" fill="white"/>
<path d="M294.821 184.587H289.392C289.286 184.587 289.183 184.544 289.108 184.469C289.033 184.393 288.99 184.291 288.99 184.184C288.99 184.078 289.033 183.975 289.108 183.9C289.183 183.824 289.286 183.782 289.392 183.782H294.821C294.928 183.782 295.03 183.824 295.106 183.9C295.181 183.975 295.223 184.078 295.223 184.184C295.223 184.291 295.181 184.393 295.106 184.469C295.03 184.544 294.928 184.587 294.821 184.587Z" fill="white"/>
<path d="M294.821 186.097H289.392C289.286 186.097 289.183 186.054 289.108 185.979C289.033 185.903 288.99 185.801 288.99 185.694C288.99 185.587 289.033 185.485 289.108 185.409C289.183 185.334 289.286 185.292 289.392 185.292H294.821C294.928 185.292 295.03 185.334 295.105 185.41C295.18 185.485 295.222 185.588 295.222 185.694C295.222 185.801 295.18 185.903 295.105 185.978C295.03 186.054 294.928 186.096 294.821 186.097Z" fill="white"/>
<path d="M226.957 219.609H213.608C212.939 219.609 212.297 219.342 211.824 218.869C211.351 218.395 211.085 217.753 211.084 217.083V205.509C211.085 204.839 211.351 204.197 211.824 203.723C212.297 203.25 212.939 202.983 213.608 202.982H226.957C227.626 202.983 228.268 203.25 228.741 203.723C229.215 204.197 229.481 204.839 229.482 205.509V217.083C229.481 217.752 229.215 218.395 228.741 218.868C228.268 219.342 227.626 219.609 226.957 219.609Z" fill="#6C63FF"/>
<path d="M282.014 209.754H235.49C235.186 209.754 234.894 209.634 234.679 209.418C234.464 209.203 234.344 208.911 234.344 208.607C234.344 208.303 234.464 208.011 234.679 207.796C234.894 207.581 235.186 207.46 235.49 207.46H282.014C282.318 207.46 282.609 207.581 282.824 207.796C283.039 208.011 283.16 208.303 283.16 208.607C283.16 208.911 283.039 209.203 282.824 209.418C282.609 209.634 282.318 209.754 282.014 209.754Z" fill="#E4E4E4"/>
<path d="M253.16 215.132H235.49C235.186 215.132 234.894 215.011 234.679 214.796C234.464 214.581 234.344 214.289 234.344 213.985C234.344 213.68 234.464 213.389 234.679 213.173C234.894 212.958 235.186 212.837 235.49 212.837H253.16C253.311 212.837 253.46 212.867 253.6 212.924C253.739 212.982 253.866 213.066 253.972 213.173C254.079 213.279 254.164 213.406 254.221 213.545C254.279 213.684 254.309 213.834 254.309 213.985C254.309 214.135 254.279 214.285 254.221 214.424C254.164 214.564 254.079 214.69 253.972 214.797C253.866 214.903 253.739 214.988 253.6 215.045C253.46 215.103 253.311 215.132 253.16 215.132Z" fill="#E4E4E4"/>
<path d="M226.957 253.868H213.608C212.939 253.867 212.297 253.601 211.824 253.127C211.351 252.654 211.085 252.011 211.084 251.341V239.768C211.085 239.098 211.351 238.456 211.824 237.982C212.297 237.508 212.939 237.242 213.608 237.241H226.957C227.626 237.242 228.268 237.508 228.741 237.982C229.215 238.456 229.481 239.098 229.482 239.768V251.341C229.481 252.011 229.215 252.654 228.741 253.127C228.268 253.601 227.626 253.867 226.957 253.868Z" fill="#6C63FF"/>
<path d="M282.014 244.013H235.49C235.186 244.013 234.894 243.892 234.679 243.677C234.464 243.462 234.344 243.17 234.344 242.866C234.344 242.562 234.464 242.27 234.679 242.055C234.894 241.84 235.186 241.719 235.49 241.719H282.014C282.318 241.719 282.609 241.84 282.824 242.055C283.039 242.27 283.16 242.562 283.16 242.866C283.16 243.17 283.039 243.462 282.824 243.677C282.609 243.892 282.318 244.013 282.014 244.013Z" fill="#E4E4E4"/>
<path d="M253.16 249.391H235.49C235.186 249.391 234.894 249.27 234.679 249.055C234.464 248.839 234.344 248.548 234.344 248.243C234.344 247.939 234.464 247.647 234.679 247.432C234.894 247.217 235.186 247.096 235.49 247.096H253.16C253.311 247.096 253.46 247.125 253.6 247.183C253.739 247.24 253.866 247.325 253.972 247.431C254.079 247.538 254.164 247.665 254.221 247.804C254.279 247.943 254.309 248.093 254.309 248.243C254.309 248.394 254.279 248.544 254.221 248.683C254.164 248.822 254.079 248.949 253.972 249.055C253.866 249.162 253.739 249.246 253.6 249.304C253.46 249.361 253.311 249.391 253.16 249.391Z" fill="#E4E4E4"/>
<path d="M226.957 288.127H213.608C212.939 288.126 212.297 287.86 211.824 287.386C211.351 286.912 211.085 286.27 211.084 285.6V274.027C211.085 273.357 211.351 272.715 211.824 272.241C212.297 271.767 212.939 271.501 213.608 271.5H226.957C227.626 271.501 228.268 271.767 228.741 272.241C229.215 272.715 229.481 273.357 229.482 274.027V285.6C229.481 286.27 229.215 286.912 228.741 287.386C228.268 287.86 227.626 288.126 226.957 288.127Z" fill="#6C63FF"/>
<path d="M282.014 278.272H235.49C235.186 278.272 234.894 278.151 234.679 277.936C234.464 277.721 234.344 277.429 234.344 277.125C234.344 276.821 234.464 276.529 234.679 276.314C234.894 276.098 235.186 275.978 235.49 275.978H282.014C282.318 275.978 282.609 276.098 282.824 276.314C283.039 276.529 283.16 276.821 283.16 277.125C283.16 277.429 283.039 277.721 282.824 277.936C282.609 278.151 282.318 278.272 282.014 278.272Z" fill="#E4E4E4"/>
<path d="M253.16 283.649H235.49C235.186 283.649 234.894 283.529 234.679 283.313C234.464 283.098 234.344 282.806 234.344 282.502C234.344 282.198 234.464 281.906 234.679 281.691C234.894 281.476 235.186 281.355 235.49 281.355H253.16C253.311 281.355 253.46 281.384 253.6 281.442C253.739 281.499 253.866 281.584 253.972 281.69C254.079 281.797 254.164 281.923 254.221 282.063C254.279 282.202 254.309 282.351 254.309 282.502C254.309 282.653 254.279 282.802 254.221 282.942C254.164 283.081 254.079 283.208 253.972 283.314C253.866 283.421 253.739 283.505 253.6 283.563C253.46 283.62 253.311 283.65 253.16 283.649Z" fill="#E4E4E4"/>
</g>
<path d="M361.373 302.866C359.972 291.582 352.986 280.465 342.236 276.793C346.475 288.407 346.474 301.147 342.233 312.761C340.581 317.233 338.279 322.036 339.832 326.544C340.799 329.349 343.164 331.495 345.808 332.837C348.452 334.179 351.386 334.818 354.283 335.445L354.853 335.917C359.453 325.521 362.775 314.149 361.373 302.866Z" fill="#F0F0F0"/>
<path d="M342.129 277.006C348.39 284.028 352.281 292.846 353.25 302.207C353.494 304.219 353.42 306.256 353.03 308.245C352.589 310.169 351.64 311.941 350.283 313.374C349.044 314.736 347.62 315.986 346.733 317.626C346.292 318.472 346.035 319.402 345.978 320.355C345.921 321.307 346.066 322.261 346.403 323.154C347.185 325.4 348.727 327.231 350.298 328.969C352.041 330.899 353.882 332.876 354.623 335.434C354.713 335.744 355.188 335.587 355.099 335.277C353.809 330.826 349.493 328.298 347.434 324.289C346.474 322.418 346.071 320.246 346.971 318.272C347.759 316.545 349.226 315.255 350.492 313.886C351.837 312.507 352.823 310.82 353.366 308.971C353.855 307.009 354.008 304.977 353.816 302.964C353.457 298.424 352.388 293.969 350.647 289.762C348.686 284.95 345.917 280.508 342.46 276.631C342.246 276.391 341.917 276.768 342.129 277.006Z" fill="white"/>
<path d="M353.114 299.175C354.661 298.799 356.024 297.885 356.96 296.595C357.896 295.306 358.344 293.726 358.223 292.137C358.197 291.816 357.697 291.84 357.723 292.162C357.838 293.642 357.421 295.114 356.547 296.312C355.673 297.511 354.4 298.357 352.957 298.699C352.644 298.773 352.803 299.249 353.114 299.175Z" fill="white"/>
<path d="M351.001 312.766C348.207 311.096 346.144 308.434 345.224 305.309C345.133 304.999 344.658 305.157 344.749 305.466C345.712 308.716 347.864 311.483 350.775 313.214C351.053 313.379 351.277 312.93 351.001 312.766Z" fill="white"/>
<path d="M348.221 285.425C347.653 285.695 347.027 285.82 346.398 285.788C345.77 285.756 345.159 285.568 344.621 285.242C344.346 285.073 344.122 285.522 344.396 285.689C344.992 286.047 345.667 286.254 346.361 286.291C347.055 286.327 347.748 286.193 348.378 285.901C348.44 285.878 348.491 285.833 348.52 285.774C348.55 285.715 348.556 285.647 348.537 285.584C348.516 285.521 348.471 285.469 348.412 285.439C348.353 285.409 348.284 285.404 348.221 285.425Z" fill="white"/>
<path d="M309.468 296.947C309.637 297.057 309.806 297.167 309.975 297.281C312.239 298.771 314.378 300.443 316.372 302.28C316.528 302.42 316.684 302.564 316.837 302.707C321.592 307.184 325.476 312.507 328.291 318.403C329.409 320.75 330.347 323.179 331.097 325.669C332.132 329.108 332.981 332.919 335.03 335.731C335.241 336.027 335.47 336.309 335.715 336.577H354.234C354.276 336.556 354.318 336.539 354.361 336.518L355.1 336.552C355.07 336.421 355.037 336.285 355.007 336.154C354.99 336.078 354.969 336.002 354.952 335.926C354.94 335.875 354.927 335.824 354.918 335.778C354.914 335.761 354.91 335.744 354.906 335.731C354.897 335.685 354.885 335.642 354.876 335.6C354.69 334.843 354.499 334.086 354.302 333.329C354.302 333.325 354.302 333.325 354.297 333.32C352.78 327.556 350.769 321.867 347.96 316.665C347.875 316.508 347.791 316.347 347.698 316.191C346.418 313.853 344.95 311.624 343.308 309.525C342.405 308.379 341.444 307.279 340.43 306.231C337.805 303.525 334.771 301.25 331.439 299.489C324.797 295.978 317.107 294.633 310.009 296.778C309.827 296.833 309.649 296.888 309.468 296.947Z" fill="#F0F0F0"/>
<path d="M309.509 297.182C318.731 299.015 327.141 303.711 333.546 310.601C334.951 312.06 336.117 313.732 337.002 315.554C337.807 317.357 338.115 319.343 337.893 321.306C337.724 323.14 337.338 324.996 337.617 326.84C337.773 327.781 338.127 328.679 338.655 329.474C339.182 330.269 339.872 330.943 340.678 331.453C342.654 332.775 344.986 333.307 347.285 333.749C349.838 334.239 352.497 334.707 354.628 336.303C354.886 336.497 355.17 336.085 354.913 335.892C351.206 333.115 346.239 333.697 342.184 331.737C340.292 330.822 338.664 329.331 338.195 327.212C337.785 325.358 338.181 323.444 338.369 321.588C338.613 319.677 338.385 317.735 337.707 315.932C336.917 314.07 335.817 312.356 334.453 310.864C331.436 307.456 327.903 304.543 323.982 302.234C319.522 299.573 314.64 297.695 309.548 296.682C309.232 296.62 309.196 297.12 309.509 297.182Z" fill="white"/>
<path d="M331.614 308.261C332.623 307.029 333.161 305.477 333.133 303.884C333.105 302.291 332.512 300.76 331.46 299.564C331.246 299.322 330.861 299.643 331.075 299.885C332.057 300.997 332.609 302.423 332.633 303.907C332.656 305.391 332.148 306.834 331.202 307.976C330.997 308.224 331.409 308.508 331.614 308.261Z" fill="white"/>
<path d="M338.102 320.387C334.866 320.738 331.618 319.855 329.004 317.914C328.745 317.722 328.461 318.134 328.719 318.326C331.443 320.34 334.825 321.252 338.191 320.88C338.512 320.845 338.421 320.352 338.102 320.387Z" fill="white"/>
<path d="M319.437 300.232C319.145 300.79 318.72 301.267 318.199 301.621C317.678 301.974 317.078 302.192 316.452 302.256C316.131 302.287 316.222 302.78 316.541 302.749C317.233 302.675 317.896 302.433 318.472 302.045C319.048 301.656 319.521 301.131 319.848 300.517C319.884 300.462 319.897 300.395 319.885 300.33C319.874 300.266 319.838 300.208 319.785 300.169C319.73 300.131 319.663 300.117 319.598 300.129C319.532 300.14 319.475 300.178 319.437 300.232Z" fill="white"/>
<path d="M279.648 104.595L58.634 64.0611C58.1841 63.9745 57.7213 63.98 57.2735 64.0772C56.8674 64.1662 56.4861 64.3445 56.1572 64.5991C55.8357 64.8501 55.5771 65.1726 55.4017 65.541C55.2152 65.9389 55.1203 66.3737 55.1242 66.8132V265.016C55.12 265.456 55.2146 265.891 55.4009 266.289C55.576 266.657 55.8343 266.98 56.1555 267.231C56.4842 267.486 56.8653 267.665 57.2714 267.754C57.7191 267.852 58.1819 267.857 58.6319 267.771L279.648 227.237C279.832 227.199 280.001 227.113 280.14 226.987C280.302 226.843 280.437 226.671 280.54 226.48C280.659 226.262 280.75 226.029 280.809 225.788C280.875 225.525 280.908 225.255 280.908 224.984V106.855C280.908 106.583 280.875 106.312 280.809 106.049C280.75 105.807 280.66 105.574 280.54 105.356C280.437 105.165 280.302 104.993 280.14 104.849C280.002 104.723 279.832 104.636 279.649 104.599L279.648 104.595Z" fill="#E4E4E4"/>
<path d="M283.028 104.595L62.0139 64.0611C61.564 63.9745 61.1012 63.98 60.6534 64.0772C60.2473 64.1662 59.866 64.3445 59.5371 64.5991C59.2156 64.8501 58.957 65.1726 58.7816 65.541C58.5951 65.9389 58.5002 66.3737 58.504 66.8132V265.016C58.4999 265.456 58.5945 265.891 58.7808 266.289C58.9558 266.657 59.2142 266.98 59.5354 267.231C59.8641 267.486 60.2452 267.665 60.6513 267.754C61.099 267.852 61.5618 267.857 62.0118 267.771L283.028 227.237C283.211 227.199 283.381 227.113 283.52 226.987C283.681 226.843 283.817 226.671 283.92 226.48C284.039 226.262 284.13 226.029 284.189 225.788C284.254 225.525 284.288 225.255 284.288 224.984V106.855C284.288 106.583 284.255 106.312 284.189 106.049C284.13 105.807 284.04 105.574 283.92 105.356C283.817 105.165 283.682 104.993 283.52 104.849C283.381 104.723 283.212 104.636 283.029 104.599L283.028 104.595Z" fill="white"/>
<path d="M283.028 104.595L62.0139 64.0611C61.564 63.9745 61.1012 63.98 60.6534 64.0772C60.2473 64.1662 59.866 64.3445 59.5371 64.5991C59.2156 64.8501 58.957 65.1726 58.7816 65.541C58.5951 65.9389 58.5002 66.3737 58.504 66.8132V265.016C58.4999 265.456 58.5945 265.891 58.7808 266.289C58.9558 266.657 59.2142 266.98 59.5354 267.231C59.8641 267.486 60.2452 267.665 60.6513 267.754C61.099 267.852 61.5618 267.857 62.0118 267.771L283.028 227.237C283.211 227.199 283.381 227.113 283.52 226.987C283.681 226.843 283.817 226.671 283.92 226.48C284.039 226.262 284.13 226.029 284.189 225.788C284.254 225.525 284.288 225.255 284.288 224.984V106.855C284.288 106.583 284.255 106.312 284.189 106.049C284.13 105.807 284.04 105.574 283.92 105.356C283.817 105.165 283.682 104.993 283.52 104.849C283.381 104.723 283.212 104.636 283.029 104.599L283.028 104.595ZM283.869 225.055C283.869 225.237 283.847 225.417 283.803 225.593C283.764 225.755 283.703 225.91 283.624 226.056C283.555 226.183 283.464 226.298 283.357 226.394C283.264 226.478 283.151 226.535 283.029 226.56L62.016 266.644C61.7162 266.701 61.4079 266.697 61.1097 266.631C60.8395 266.571 60.586 266.452 60.3673 266.282C60.1537 266.115 59.9818 265.9 59.8654 265.655C59.7417 265.39 59.6787 265.101 59.6812 264.809V67.0239C59.6786 66.7317 59.7414 66.4427 59.865 66.178C59.9812 65.9324 60.1529 65.7172 60.3665 65.5495C60.5849 65.3795 60.8383 65.2602 61.1085 65.2001C61.4066 65.1345 61.7149 65.1301 62.0148 65.187L283.029 105.272C283.151 105.297 283.264 105.355 283.357 105.438C283.464 105.535 283.555 105.649 283.624 105.776C283.703 105.922 283.764 106.077 283.804 106.238C283.847 106.414 283.87 106.595 283.869 106.776V225.055L283.869 225.055Z" fill="#CACACA"/>
<path d="M23.0003 125.864C22.9897 124.512 23.2754 123.173 23.8373 121.944C24.3625 120.808 25.1386 119.806 26.1071 119.014C27.082 118.223 28.2201 117.658 29.4395 117.36C30.7588 117.041 32.1297 117 33.4657 117.238C34.867 117.482 36.2117 117.982 37.4328 118.712C38.6392 119.431 39.7191 120.343 40.6292 121.413C41.5316 122.468 42.2527 123.665 42.7629 124.956C43.2714 126.238 43.5354 127.603 43.5412 128.982C43.5507 130.286 43.2855 131.577 42.7629 132.772C42.2721 133.882 41.5437 134.87 40.6292 135.667C39.7022 136.47 38.6114 137.061 37.4328 137.398C36.1435 137.762 34.7925 137.854 33.4657 137.668C32.0525 137.473 30.6878 137.016 29.4416 136.321C28.1896 135.626 27.0634 134.724 26.1105 133.654C25.1535 132.587 24.3857 131.363 23.8403 130.037C23.2934 128.713 23.0081 127.296 23.0003 125.864Z" fill="#E4E4E4"/>
<path d="M23.0003 166.89C22.9897 165.538 23.2754 164.2 23.8373 162.97C24.3625 161.834 25.1386 160.833 26.1071 160.041C27.082 159.249 28.2201 158.684 29.4395 158.386C30.7588 158.067 32.1297 158.026 33.4657 158.264C34.867 158.509 36.2117 159.008 37.4328 159.738C38.6392 160.457 39.7191 161.37 40.6292 162.439C41.5316 163.494 42.2527 164.692 42.7629 165.983C43.2714 167.264 43.5354 168.63 43.5412 170.008C43.5507 171.312 43.2855 172.604 42.7629 173.798C42.2721 174.908 41.5437 175.897 40.6292 176.694C39.7022 177.496 38.6114 178.087 37.4328 178.424C36.1435 178.789 34.7925 178.881 33.4657 178.694C32.0525 178.499 30.6878 178.043 29.4416 177.347C28.1896 176.652 27.0634 175.751 26.1105 174.681C25.1535 173.613 24.3857 172.39 23.8403 171.063C23.2934 169.74 23.0081 168.322 23.0003 166.89Z" fill="#E4E4E4"/>
<path d="M23.0003 207.916C22.9897 206.564 23.2754 205.226 23.8373 203.996C24.3625 202.86 25.1386 201.858 26.1071 201.067C27.082 200.275 28.2201 199.71 29.4395 199.412C30.7588 199.093 32.1297 199.052 33.4657 199.29C34.867 199.535 36.2117 200.034 37.4328 200.764C38.6392 201.483 39.7191 202.395 40.6292 203.465C41.5316 204.52 42.2527 205.717 42.7629 207.009C43.2714 208.29 43.5354 209.656 43.5412 211.034C43.5507 212.338 43.2855 213.63 42.7629 214.824C42.2721 215.934 41.5437 216.922 40.6292 217.719C39.7022 218.522 38.6114 219.113 37.4328 219.45C36.1435 219.815 34.7925 219.906 33.4657 219.72C32.0525 219.525 30.6878 219.068 29.4416 218.373C28.1896 217.678 27.0634 216.776 26.1105 215.707C25.1535 214.639 24.3857 213.416 23.8403 212.089C23.2934 210.766 23.0081 209.348 23.0003 207.916Z" fill="#E4E4E4"/>
<path d="M25.5354 125.864C25.5248 124.512 25.8105 123.173 26.3725 121.944C26.8976 120.808 27.6738 119.806 28.6422 119.014C29.6171 118.223 30.7553 117.658 31.9747 117.36C33.2939 117.041 34.6649 117 36.0009 117.238C37.4022 117.482 38.7468 117.982 39.968 118.712C41.1743 119.431 42.2543 120.343 43.1643 121.413C44.0668 122.468 44.7879 123.665 45.2981 124.956C45.8066 126.238 46.0706 127.603 46.0764 128.982C46.0858 130.286 45.8207 131.577 45.2981 132.772C44.8073 133.882 44.0789 134.87 43.1643 135.667C42.2374 136.47 41.1465 137.061 39.968 137.398C38.6786 137.762 37.3276 137.854 36.0009 137.668C34.5876 137.473 33.223 137.016 31.9768 136.321C30.7247 135.626 29.5986 134.724 28.6456 133.654C27.6886 132.587 26.9208 131.363 26.3754 130.037C25.8285 128.713 25.5433 127.296 25.5354 125.864Z" fill="#6C63FF"/>
<path d="M25.5353 166.61C25.5288 165.238 25.8141 163.88 26.3723 162.627C26.9023 161.446 27.6758 160.391 28.6421 159.531C29.6085 158.671 30.7435 158.023 31.9745 157.628C33.2738 157.214 34.6441 157.071 36.0007 157.208C37.3863 157.344 38.733 157.745 39.9678 158.389C41.1702 159.015 42.2524 159.85 43.1642 160.853C44.0698 161.846 44.7922 162.992 45.2979 164.237C45.8101 165.499 46.0742 166.848 46.0758 168.21C46.0816 169.532 45.8167 170.842 45.2975 172.059C44.7996 173.216 44.0697 174.259 43.1528 175.122C42.236 175.986 41.1518 176.652 39.9674 177.079C38.6973 177.536 37.3472 177.727 36.0003 177.642C34.6038 177.556 33.2372 177.2 31.9762 176.593C29.4587 175.381 27.4679 173.294 26.3757 170.72C25.8252 169.42 25.5395 168.023 25.5353 166.61Z" fill="#6C63FF"/>
<path d="M25.5352 207.357C25.5334 205.992 25.8078 204.64 26.3417 203.384C26.8757 202.128 27.6581 200.993 28.642 200.048C29.8518 198.888 31.3254 198.041 32.9356 197.579C34.5457 197.118 36.244 197.055 37.8836 197.398C39.5232 197.74 41.0549 198.477 42.3463 199.545C43.6377 200.612 44.65 201.979 45.2957 203.526C45.9304 205.065 46.1787 206.737 46.019 208.395C45.8592 210.053 45.2962 211.646 44.3791 213.036C43.4621 214.425 42.219 215.569 40.7584 216.367C39.2978 217.164 37.6643 217.592 36.0006 217.612C33.9638 217.642 31.9637 217.068 30.2512 215.964C28.5388 214.86 27.1905 213.274 26.3756 211.405C25.8213 210.127 25.5352 208.75 25.5352 207.357Z" fill="#6C63FF"/>
<path d="M31.9198 125.817L34.9881 126.289V123.261C34.9867 123.13 35.0135 123 35.0667 122.88C35.1165 122.77 35.1906 122.672 35.2835 122.594C35.3773 122.515 35.4872 122.459 35.6055 122.428C35.7343 122.395 35.8685 122.39 35.9997 122.411C36.1386 122.434 36.2723 122.482 36.3939 122.553C36.5151 122.623 36.6239 122.713 36.7158 122.819C36.8076 122.924 36.8811 123.044 36.9334 123.173C36.9856 123.301 37.013 123.438 37.0141 123.577V126.601L40.0242 127.063C40.1609 127.085 40.2925 127.132 40.4121 127.202C40.6519 127.341 40.8383 127.557 40.9419 127.814C40.993 127.941 41.0195 128.077 41.0201 128.215C41.0211 128.344 40.9944 128.473 40.9419 128.591C40.8934 128.701 40.8212 128.798 40.7306 128.877C40.6387 128.955 40.5306 129.012 40.4142 129.043C40.2877 129.077 40.1556 129.084 40.0263 129.064L37.012 128.612V131.63C37.013 131.761 36.9859 131.89 36.9326 132.01C36.8827 132.121 36.8088 132.22 36.7163 132.299C36.6228 132.378 36.5132 132.436 36.3951 132.468C36.2669 132.503 36.1328 132.511 36.0014 132.491C35.8626 132.471 35.7287 132.425 35.6067 132.356C35.4853 132.287 35.3764 132.198 35.2843 132.094C35.1924 131.989 35.1188 131.87 35.0667 131.742C35.0149 131.613 34.9883 131.476 34.9881 131.337V128.309L31.9198 127.848C31.7788 127.826 31.643 127.778 31.5192 127.708C31.396 127.637 31.2854 127.547 31.1918 127.441C31.0987 127.336 31.024 127.216 30.9708 127.086C30.9177 126.956 30.8902 126.818 30.8897 126.677C30.8887 126.545 30.9163 126.414 30.9708 126.294C31.0219 126.182 31.0974 126.083 31.1918 126.004C31.2872 125.925 31.399 125.867 31.5192 125.835C31.6501 125.802 31.7865 125.796 31.9198 125.817Z" fill="white"/>
<path d="M34.0732 170.131L42.5938 170.749H42.6251L38.6293 163.487C38.6045 163.442 38.569 163.403 38.5258 163.374C38.5046 163.36 38.4817 163.348 38.4578 163.34C38.4336 163.331 38.4085 163.326 38.383 163.323C38.3581 163.321 38.3331 163.322 38.3086 163.327C38.285 163.331 38.2621 163.339 38.2406 163.35C38.1975 163.371 38.1616 163.404 38.1371 163.446L35.4181 167.92L35.2871 168.135L34.0732 170.131Z" fill="white"/>
<path d="M29.21 169.778L36.7275 170.324L35.2867 168.135L35.1827 167.977L33.2932 165.105C33.2598 165.061 33.218 165.023 33.1703 164.994C33.1471 164.981 33.1226 164.969 33.0972 164.96C33.0709 164.95 33.0437 164.944 33.016 164.94C32.9893 164.936 32.9623 164.935 32.9353 164.937C32.9092 164.939 32.8832 164.943 32.858 164.95C32.8332 164.958 32.8093 164.968 32.7866 164.98C32.7639 164.993 32.7426 165.008 32.7232 165.025L32.7169 165.033L32.7089 165.04L32.7025 165.048L32.6962 165.056L29.21 169.778Z" fill="white"/>
<path d="M34.8948 162.293C35.0681 162.308 35.2369 162.356 35.3921 162.435C35.5442 162.512 35.6814 162.616 35.7973 162.741C35.913 162.866 36.0054 163.01 36.0703 163.168C36.136 163.327 36.17 163.497 36.1704 163.669C36.1711 163.836 36.137 164.001 36.0703 164.154C36.0068 164.299 35.9139 164.428 35.7973 164.535C35.6802 164.641 35.5422 164.722 35.3921 164.773C35.2321 164.826 35.0628 164.846 34.8948 164.832C34.7213 164.817 34.5521 164.769 34.3966 164.691C34.2438 164.614 34.1059 164.51 33.9893 164.384C33.8729 164.26 33.7797 164.115 33.7143 163.957C33.6479 163.797 33.6136 163.626 33.6133 163.453C33.6126 163.286 33.647 163.12 33.7143 162.967C33.7783 162.822 33.872 162.692 33.9893 162.586C34.1073 162.48 34.246 162.4 34.3966 162.35C34.557 162.297 34.7266 162.277 34.8948 162.293Z" fill="white"/>
<path d="M126.841 191.241L211.21 111.111L211.572 111.745L127.368 191.919L126.841 191.241Z" fill="#E6E6E6"/>
<path d="M126.854 100.42L127.383 99.7856L211.564 187.262L211.201 187.865L126.854 100.42Z" fill="#E6E6E6"/>
<path d="M210.357 109.941L128.345 98.6626C127.966 98.6084 127.579 98.6413 127.215 98.759C126.868 98.8735 126.551 99.0649 126.288 99.319C126.016 99.5818 125.803 99.8988 125.661 100.249C125.506 100.636 125.427 101.05 125.43 101.467V189.837C125.429 190.26 125.507 190.679 125.661 191.072C125.804 191.438 126.017 191.773 126.288 192.057C126.549 192.331 126.865 192.547 127.214 192.691C127.572 192.838 127.959 192.903 128.345 192.881L210.357 188.36C210.634 188.342 210.902 188.254 211.136 188.106C211.385 187.949 211.6 187.745 211.77 187.505C211.958 187.243 212.102 186.952 212.197 186.643C212.301 186.308 212.354 185.96 212.354 185.609V112.853C212.353 112.498 212.3 112.145 212.197 111.806C212.101 111.487 211.957 111.185 211.77 110.909C211.6 110.655 211.385 110.433 211.136 110.256C210.905 110.09 210.638 109.983 210.357 109.941ZM128.345 191.972C128.069 191.987 127.794 191.94 127.539 191.835C127.289 191.731 127.064 191.576 126.878 191.38C126.684 191.177 126.533 190.937 126.431 190.676C126.321 190.395 126.265 190.096 126.266 189.795V101.576C126.264 101.279 126.32 100.985 126.431 100.709C126.532 100.458 126.684 100.231 126.878 100.043C127.065 99.8619 127.291 99.7253 127.539 99.6434C127.799 99.5588 128.074 99.5347 128.345 99.5727L210.357 110.698C210.558 110.728 210.749 110.805 210.914 110.923C211.092 111.05 211.246 111.207 211.368 111.389C211.501 111.586 211.604 111.802 211.673 112.029C211.748 112.272 211.785 112.525 211.786 112.778V185.638C211.786 185.889 211.748 186.139 211.673 186.379C211.605 186.599 211.502 186.807 211.368 186.994C211.246 187.166 211.092 187.311 210.914 187.423C210.746 187.529 210.555 187.59 210.357 187.602L128.345 191.972Z" fill="#E6E6E6"/>
<path d="M125.628 202.213C125.41 202.237 125.202 202.318 125.025 202.447C124.83 202.591 124.664 202.77 124.536 202.976C124.391 203.206 124.281 203.457 124.21 203.72C124.131 204.007 124.093 204.303 124.097 204.601C124.099 204.885 124.141 205.168 124.224 205.441C124.295 205.681 124.407 205.906 124.553 206.109C124.681 206.287 124.846 206.435 125.038 206.542C125.219 206.641 125.424 206.687 125.629 206.675L269.204 194.775C269.318 194.765 269.426 194.716 269.508 194.635C269.612 194.535 269.697 194.417 269.757 194.285C269.833 194.123 269.89 193.953 269.926 193.778C269.969 193.575 269.991 193.368 269.992 193.161C269.994 192.956 269.976 192.751 269.936 192.55C269.903 192.379 269.849 192.213 269.774 192.055C269.717 191.93 269.634 191.818 269.531 191.726C269.448 191.652 269.341 191.612 269.23 191.614H269.204L125.628 202.213Z" fill="#E6E6E6"/>
<path d="M125.628 215.756C125.409 215.786 125.201 215.873 125.025 216.007C124.83 216.155 124.664 216.338 124.536 216.547C124.391 216.781 124.281 217.034 124.21 217.3C124.131 217.589 124.093 217.887 124.097 218.186C124.098 218.47 124.141 218.752 124.224 219.023C124.295 219.26 124.406 219.483 124.553 219.682C124.681 219.857 124.846 220 125.037 220.101C125.219 220.196 125.424 220.237 125.629 220.219L269.204 204.364C269.319 204.351 269.426 204.299 269.508 204.216C269.612 204.114 269.696 203.992 269.757 203.859C269.833 203.695 269.89 203.522 269.926 203.345C269.969 203.141 269.991 202.934 269.992 202.726C269.994 202.521 269.976 202.317 269.936 202.116C269.903 201.946 269.849 201.782 269.774 201.626C269.716 201.503 269.633 201.393 269.53 201.305C269.446 201.233 269.338 201.196 269.228 201.201H269.203L125.628 215.756Z" fill="#E6E6E6"/>
<path d="M125.628 229.08C125.408 229.116 125.2 229.208 125.025 229.347C124.83 229.501 124.664 229.688 124.536 229.901C124.391 230.138 124.281 230.394 124.21 230.662C124.131 230.952 124.093 231.251 124.097 231.551C124.098 231.833 124.141 232.114 124.224 232.384C124.295 232.619 124.406 232.839 124.553 233.035C124.681 233.206 124.846 233.345 125.037 233.441C125.22 233.531 125.426 233.566 125.629 233.542L269.204 213.797C269.32 213.781 269.427 213.726 269.508 213.642C269.612 213.536 269.696 213.413 269.757 213.278C269.833 213.112 269.89 212.938 269.926 212.759C269.968 212.554 269.99 212.347 269.992 212.138C269.994 211.934 269.976 211.73 269.936 211.53C269.904 211.362 269.849 211.198 269.774 211.044C269.717 210.923 269.633 210.815 269.53 210.73C269.446 210.66 269.337 210.626 269.228 210.634H269.203L125.628 229.08Z" fill="#E6E6E6"/>
<path d="M40.0968 203.066L31.9008 202.968C31.7641 202.963 31.6276 202.982 31.4977 203.025C31.372 203.066 31.2544 203.128 31.1499 203.209C31.0458 203.29 30.9566 203.389 30.8863 203.5C30.8142 203.614 30.7634 203.741 30.7363 203.873C30.7092 204.032 30.7175 204.194 30.7604 204.349C30.7818 204.426 30.8115 204.501 30.8491 204.572C30.9257 204.716 31.0328 204.842 31.163 204.941C31.3583 205.089 31.5961 205.17 31.8412 205.172L34.3062 205.195C34.4224 205.196 34.5359 205.23 34.6327 205.295C34.7296 205.359 34.8055 205.45 34.8512 205.557C34.882 205.63 34.8978 205.707 34.8977 205.786V210.626C34.8916 210.893 34.9806 211.154 35.1487 211.362C35.3169 211.57 35.5532 211.712 35.8158 211.764C36.0539 211.804 36.2985 211.764 36.5122 211.652C36.7259 211.539 36.8968 211.36 36.9989 211.141C37.0661 210.997 37.101 210.84 37.1012 210.68V205.8C37.1012 205.723 37.1162 205.648 37.1454 205.578C37.1746 205.507 37.2173 205.443 37.2711 205.39C37.3249 205.336 37.3888 205.293 37.4591 205.264C37.5294 205.235 37.6048 205.22 37.6808 205.22L37.6864 205.22L40.0411 205.239C40.304 205.247 40.5613 205.162 40.7674 204.998C40.9734 204.835 41.1148 204.603 41.1663 204.345C41.1921 204.189 41.1839 204.029 41.1422 203.876C41.1006 203.723 41.0264 203.581 40.9249 203.46C40.8234 203.338 40.6968 203.24 40.5539 203.172C40.411 203.104 40.2551 203.068 40.0968 203.066Z" fill="white"/>
<path d="M40.0973 209.586C40.331 209.586 40.5585 209.662 40.7461 209.801C40.9337 209.941 41.0715 210.137 41.139 210.361C41.2065 210.585 41.2002 210.825 41.1209 211.045C41.0416 211.265 40.8937 211.453 40.6989 211.583C40.5042 211.712 40.273 211.775 40.0396 211.763C39.8063 211.75 39.5831 211.663 39.4032 211.514C39.2233 211.364 39.0962 211.161 39.0408 210.934C38.9854 210.706 39.0045 210.467 39.0955 210.252C39.1783 210.054 39.3176 209.886 39.4958 209.767C39.6741 209.649 39.8833 209.586 40.0973 209.586Z" fill="white"/>
<path d="M232.196 145.443C232.158 145.738 232.096 146.03 232.013 146.316L249.098 166.793L255.479 165.692L258.397 175.115L247.29 178.162C246.392 178.408 245.439 178.357 244.574 178.014C243.709 177.672 242.977 177.059 242.49 176.265L226.611 150.407C225.466 150.41 224.346 150.064 223.402 149.415C222.458 148.765 221.733 147.844 221.325 146.772C220.916 145.701 220.843 144.53 221.116 143.417C221.388 142.303 221.993 141.298 222.85 140.537C223.706 139.775 224.774 139.293 225.911 139.154C227.049 139.015 228.201 139.226 229.216 139.758C230.23 140.291 231.059 141.12 231.591 142.135C232.123 143.151 232.334 144.305 232.196 145.443Z" fill="#FFB6B6"/>
<path d="M249.855 165.651C250.037 165.355 250.281 165.102 250.57 164.909C250.86 164.716 251.187 164.588 251.53 164.533L263.517 162.62C265.213 162.084 267.051 162.243 268.63 163.063C270.208 163.882 271.398 165.295 271.938 166.991C272.477 168.687 272.323 170.528 271.509 172.11C270.695 173.692 269.287 174.887 267.594 175.432L256.642 180.762C256.33 180.914 255.988 180.997 255.641 181.005C255.293 181.013 254.948 180.946 254.629 180.808C254.31 180.671 254.024 180.466 253.791 180.208C253.558 179.95 253.383 179.644 253.279 179.313L249.605 167.652C249.501 167.32 249.469 166.969 249.512 166.624C249.555 166.279 249.672 165.947 249.855 165.651Z" fill="#3F3D56"/>
<path d="M250.523 331.522H245.343L242.879 311.522L250.524 311.522L250.523 331.522Z" fill="#FFB6B6"/>
<path d="M251.844 336.549L235.142 336.548V336.337C235.142 334.611 235.827 332.956 237.046 331.735C238.265 330.515 239.919 329.829 241.643 329.829L251.845 329.83L251.844 336.549Z" fill="#2F2E41"/>
<path d="M304.606 331.522H299.426L296.962 311.522L304.607 311.522L304.606 331.522Z" fill="#FFB6B6"/>
<path d="M305.926 336.549L289.224 336.548V336.337C289.224 334.611 289.909 332.956 291.128 331.735C292.347 330.515 294.001 329.829 295.725 329.829L305.927 329.83L305.926 336.549Z" fill="#2F2E41"/>
<path d="M252.545 209.693L274.992 203.2C283.169 209.005 288.815 220.642 286.987 235.699C284.04 259.962 301.098 291.16 308.455 322.771L295.734 323.171L267.877 256.438L251.546 324.56L240.182 324.917L247.781 231.121L252.545 209.693Z" fill="#2F2E41"/>
<path d="M262.54 150.686C268.953 150.686 274.152 145.482 274.152 139.062C274.152 132.643 268.953 127.439 262.54 127.439C256.127 127.439 250.929 132.643 250.929 139.062C250.929 145.482 256.127 150.686 262.54 150.686Z" fill="#FFB6B6"/>
<path d="M250.725 190.748C248.159 186.238 246.891 180.761 249.124 176.077C249.687 174.898 251.221 173.783 252.024 172.752L260.995 159.362L271.126 157.73C279.893 165.091 272.403 190.237 279.586 206.732L249.587 222.804C251.732 214.607 254.626 197.601 250.725 190.748Z" fill="#3F3D56"/>
<path d="M250.856 134.408C250.856 134.408 251.642 132.95 256.348 134.831C257.996 135.489 258.768 135.338 258.875 136.77C259.257 142.161 261.227 147.318 264.535 151.588L264.571 151.634L266.924 149.485L269.95 151.903L282.724 152.172C282.724 152.172 284.741 142.231 278.018 130.946C271.295 119.661 257.512 125.841 257.512 125.841C248.099 126.378 250.856 134.408 250.856 134.408Z" fill="#2F2E41"/>
<path d="M221.211 119.551L139.2 108.272C138.82 108.218 138.434 108.251 138.069 108.369C137.722 108.483 137.406 108.675 137.143 108.929C136.871 109.192 136.657 109.509 136.515 109.859C136.36 110.246 136.282 110.66 136.284 111.077V199.447C136.283 199.87 136.361 200.289 136.515 200.682C136.658 201.048 136.871 201.383 137.142 201.667C137.404 201.941 137.719 202.157 138.069 202.301C138.427 202.448 138.813 202.513 139.199 202.491L221.211 197.97C221.488 197.951 221.756 197.864 221.991 197.716C222.239 197.559 222.455 197.355 222.625 197.115C222.812 196.852 222.956 196.561 223.051 196.253C223.156 195.918 223.208 195.569 223.208 195.219V122.463C223.208 122.108 223.155 121.755 223.051 121.416C222.955 121.097 222.811 120.795 222.625 120.519C222.454 120.265 222.24 120.043 221.991 119.865C221.759 119.7 221.492 119.592 221.211 119.551Z" fill="#6C63FF"/>
<path opacity="0.2" d="M221.211 119.551L139.2 108.272C138.82 108.218 138.434 108.251 138.069 108.369C137.722 108.483 137.406 108.675 137.143 108.929C136.871 109.192 136.657 109.509 136.515 109.859C136.36 110.246 136.282 110.66 136.284 111.077V199.447C136.283 199.87 136.361 200.289 136.515 200.682C136.658 201.048 136.871 201.383 137.142 201.667C137.404 201.941 137.719 202.157 138.069 202.301C138.427 202.448 138.813 202.513 139.199 202.491L221.211 197.97C221.488 197.951 221.756 197.864 221.991 197.716C222.239 197.559 222.455 197.355 222.625 197.115C222.812 196.852 222.956 196.561 223.051 196.253C223.156 195.918 223.208 195.569 223.208 195.219V122.463C223.208 122.108 223.155 121.755 223.051 121.416C222.955 121.097 222.811 120.795 222.625 120.519C222.454 120.265 222.24 120.043 221.991 119.865C221.759 119.7 221.492 119.592 221.211 119.551Z" fill="black"/>
<path d="M224.591 119.551L142.58 108.272C142.2 108.218 141.814 108.251 141.449 108.369C141.102 108.483 140.786 108.675 140.523 108.929C140.251 109.192 140.037 109.509 139.895 109.859C139.74 110.246 139.662 110.66 139.664 111.077V199.447C139.663 199.87 139.741 200.289 139.895 200.682C140.038 201.048 140.251 201.383 140.522 201.667C140.784 201.941 141.099 202.157 141.449 202.301C141.807 202.448 142.193 202.513 142.579 202.491L224.591 197.97C224.868 197.951 225.136 197.864 225.371 197.716C225.619 197.559 225.834 197.355 226.004 197.115C226.192 196.852 226.336 196.561 226.431 196.253C226.535 195.918 226.588 195.569 226.588 195.219V122.463C226.588 122.108 226.535 121.755 226.431 121.416C226.335 121.097 226.191 120.795 226.004 120.519C225.834 120.265 225.619 120.043 225.371 119.865C225.139 119.7 224.872 119.592 224.591 119.551Z" fill="#6C63FF"/>
<path d="M224.24 190.2C224.463 190.397 224.67 190.611 224.86 190.841L251.375 188.128L254.035 182.218L263.468 185.071L259.775 195.99C259.477 196.872 258.901 197.634 258.133 198.16C257.366 198.687 256.448 198.95 255.519 198.91L225.224 197.611C224.586 198.563 223.673 199.298 222.607 199.718C221.541 200.138 220.372 200.223 219.257 199.963C218.141 199.702 217.131 199.107 216.361 198.258C215.592 197.408 215.099 196.345 214.948 195.208C214.797 194.071 214.995 192.915 215.516 191.894C216.038 190.873 216.857 190.035 217.866 189.491C218.875 188.947 220.025 188.724 221.163 188.851C222.302 188.978 223.375 189.448 224.24 190.2Z" fill="#FFB6B6"/>
<path d="M250.852 186.861C250.709 186.544 250.637 186.2 250.639 185.852C250.641 185.504 250.718 185.161 250.865 184.845L255.989 173.831C256.494 172.124 257.655 170.688 259.217 169.837C260.779 168.986 262.614 168.789 264.32 169.291C266.027 169.792 267.465 170.951 268.319 172.512C269.173 174.073 269.374 175.909 268.878 177.619L267.161 189.687C267.112 190.031 266.99 190.361 266.802 190.654C266.614 190.946 266.365 191.195 266.073 191.383C265.78 191.571 265.451 191.693 265.107 191.742C264.763 191.791 264.412 191.765 264.079 191.666L252.369 188.187C252.036 188.089 251.728 187.919 251.466 187.69C251.204 187.461 250.995 187.178 250.852 186.861Z" fill="#3F3D56"/>
<path d="M375.577 337H214.596C214.484 337 214.377 336.956 214.298 336.876C214.218 336.797 214.174 336.689 214.174 336.577C214.174 336.465 214.218 336.357 214.298 336.278C214.377 336.199 214.484 336.154 214.596 336.154H375.577C375.689 336.154 375.797 336.199 375.876 336.278C375.955 336.357 376 336.465 376 336.577C376 336.689 375.955 336.797 375.876 336.876C375.797 336.956 375.689 337 375.577 337Z" fill="#CACACA"/>
</g>
<defs>
<clipPath id="clip0_1103_897">
<rect width="353" height="273" fill="white" transform="translate(23 64)"/>
</clipPath>
<clipPath id="clip1_1103_897">
<rect width="309.143" height="184.566" fill="white" transform="translate(80.4629 127.019)"/>
</clipPath>
</defs>
</svg>
