<svg width="400" height="400" viewBox="0 0 400 400" fill="none" xmlns="http://www.w3.org/2000/svg">
<rect width="400" height="400" fill="white"/>
<path d="M374.207 208.387C377.424 208.387 380.033 205.779 380.033 202.561C380.033 199.344 377.424 196.735 374.207 196.735C370.989 196.735 368.381 199.344 368.381 202.561C368.381 205.779 370.989 208.387 374.207 208.387Z" fill="#F2F2F2"/>
<path d="M104.622 209.822C104.148 210.154 103.606 210.379 103.036 210.48C102.465 210.58 101.88 210.554 101.32 210.404C100.761 210.254 100.241 209.983 99.7975 209.61C99.3541 209.237 98.9978 208.772 98.7537 208.247L84.7432 209.665L88.1359 203.181L100.92 202.828C101.83 202.477 102.837 202.471 103.751 202.813C104.665 203.154 105.421 203.819 105.878 204.681C106.334 205.543 106.458 206.542 106.227 207.49C105.995 208.437 105.425 209.267 104.622 209.822Z" fill="#FFB6B6"/>
<path d="M64.1947 216.203L33.323 203.41C30.877 202.393 28.9343 200.448 27.9209 198.001C26.9076 195.553 26.9065 192.804 27.9179 190.356C28.4793 189.001 29.3322 187.786 30.4158 186.798C31.4994 185.81 32.7873 185.073 34.188 184.638C35.5887 184.204 37.0679 184.083 38.5205 184.285C39.9731 184.486 41.3635 185.005 42.5931 185.804L67.4672 201.976L93.3538 200.665L95.2919 208.726L64.1947 216.203Z" fill="#6C63FF"/>
<path d="M58.5077 353.729H63.4504L65.8019 334.664L58.5068 334.664L58.5077 353.729Z" fill="#FFB6B6"/>
<path d="M56.8339 351.291L64.6474 350.824V354.172L72.076 359.302C72.4429 359.556 72.7193 359.92 72.8647 360.341C73.0101 360.763 73.017 361.22 72.8843 361.645C72.7516 362.071 72.4863 362.443 72.1271 362.707C71.7679 362.972 71.3337 363.114 70.8878 363.114H61.5855L59.9821 359.803L59.356 363.114H55.8486L56.8339 351.291Z" fill="#2F2E41"/>
<path d="M26.706 353.729H31.6486L34.0001 334.664L26.7051 334.664L26.706 353.729Z" fill="#FFB6B6"/>
<path d="M25.0321 351.291L32.8457 350.824V354.172L40.2743 359.302C40.6412 359.556 40.9176 359.92 41.063 360.341C41.2084 360.763 41.2152 361.22 41.0825 361.645C40.9499 362.071 40.6846 362.443 40.3254 362.707C39.9662 362.972 39.532 363.114 39.0861 363.114H29.7837L28.1803 359.803L27.5542 363.114H24.0469L25.0321 351.291Z" fill="#2F2E41"/>
<path d="M51.6934 248.293L70.964 286.525C72.02 288.614 72.3466 290.996 71.8916 293.292C71.5 295.254 70.8991 297.168 70.099 299.001L67.5132 329.682L65.1962 339.305L56.8606 340.016C56.8606 340.016 57.5059 331.95 55.2473 320.638C52.9886 309.327 56.8606 292.853 56.8606 292.853C56.8606 292.853 49.7574 281.228 41.6817 275.411C33.606 269.594 51.6934 248.293 51.6934 248.293Z" fill="#2F2E41"/>
<path d="M31.0243 231.012C31.0243 231.012 27.0268 238.097 24.0735 241.911C21.345 245.365 20.0241 249.723 20.3762 254.11C20.663 257.247 21.7655 260.631 24.5664 263.311C24.5664 263.311 26.5024 268.155 25.5344 270.741V293.682C25.5344 293.682 20.3509 320.769 24.8728 328.845L26.8251 346.972C26.8251 346.972 33.6776 348.895 34.0003 345.668C34.0003 345.668 34.8963 338.578 35.2414 336.314L35.5013 313.132C35.5547 310.119 36.4895 307.189 38.1902 304.702C39.5347 302.725 40.8792 299.656 41.0584 295.291L51.6931 248.293L54.0606 231.876L31.0243 231.012Z" fill="#2F2E41"/>
<path d="M25.0718 205.762L29.2054 226.43L20.1494 247.543L53.9806 234.502L54.4399 233.255L55.5591 229.011L54.233 215.795C54.6988 214.825 61.3292 208.699 54.3947 197.928L46.9039 180.346L32.8732 180.133L32.8149 180.191C29.5159 183.484 27.0825 187.543 25.7316 192.004C24.3806 196.465 24.154 201.192 25.0718 205.762Z" fill="#6C63FF"/>
<path d="M45.6475 266.51C45.1854 266.16 44.8054 265.714 44.5343 265.202C44.2633 264.69 44.1079 264.125 44.0789 263.546C44.05 262.968 44.1483 262.39 44.3668 261.853C44.5854 261.317 44.9189 260.835 45.3439 260.441L39.6904 247.543L46.9029 248.781L51.1658 260.839C51.7799 261.596 52.0946 262.553 52.0503 263.528C52.0061 264.502 51.6059 265.426 50.9257 266.125C50.2455 266.824 49.3325 267.25 48.3597 267.32C47.3869 267.391 46.4219 267.103 45.6475 266.51Z" fill="#FFB6B6"/>
<path d="M27.1562 229.996L29.8479 196.687C30.0641 194.047 31.3187 191.601 33.3365 189.885C35.3542 188.169 37.9704 187.323 40.6108 187.534C42.0726 187.652 43.4904 188.09 44.7636 188.818C46.0368 189.546 47.1342 190.545 47.9779 191.744C48.8215 192.944 49.3908 194.315 49.6452 195.759C49.8996 197.203 49.833 198.686 49.4499 200.101L41.7008 228.74L50.8999 252.973L43.8235 257.293L27.1562 229.996Z" fill="#6C63FF"/>
<path d="M16.5684 181.195L50.8157 174.193C51.7588 171.047 53.5655 168.159 48.5776 163.247C47.8048 159.467 45.5954 156.134 42.4147 153.951C39.2339 151.767 35.33 150.903 31.5249 151.541C23.664 150.841 19.248 156.428 19.2708 163.927L16.5684 181.195Z" fill="#2F2E41"/>
<path d="M36.5388 176.464C42.9682 176.464 48.1802 171.252 48.1802 164.823C48.1802 158.394 42.9682 153.182 36.5388 153.182C30.1095 153.182 24.8975 158.394 24.8975 164.823C24.8975 171.252 30.1095 176.464 36.5388 176.464Z" fill="#FFB8B8"/>
<path d="M27.7628 155.084C29.3337 152.732 31.7707 151.095 34.5427 150.532L36.738 150.083C39.5328 149.512 42.4401 150.074 44.8203 151.646C47.2005 153.218 48.8587 155.672 49.4301 158.466C47.8528 160.521 38.5001 162.077 32.925 162.756C34.4863 168.389 40.4884 173.011 39.8391 176.437L17.8856 180.926L17.4368 178.73C13.5851 169.468 18.9578 159.987 27.7628 155.084Z" fill="#2F2E41"/>
<path d="M16.4736 181.822L50.721 174.82C51.6641 171.674 53.4707 168.785 48.4829 163.873C47.7101 160.093 45.5007 156.761 42.3199 154.577C39.1392 152.394 35.2352 151.53 31.4302 152.167C23.5693 151.468 19.1532 157.054 19.176 164.554L16.4736 181.822Z" fill="#2F2E41"/>
<path d="M36.4441 177.091C42.8734 177.091 48.0855 171.879 48.0855 165.449C48.0855 159.02 42.8734 153.808 36.4441 153.808C30.0147 153.808 24.8027 159.02 24.8027 165.449C24.8027 171.879 30.0147 177.091 36.4441 177.091Z" fill="#FFB8B8"/>
<path d="M27.6681 155.711C29.239 153.358 31.676 151.722 34.448 151.159L36.6433 150.71C39.4381 150.139 42.3453 150.701 44.7256 152.273C47.1058 153.845 48.764 156.299 49.3354 159.093C47.758 161.148 38.4054 162.704 32.8303 163.383C34.3916 169.016 40.3936 173.638 39.7443 177.064L17.7909 181.553L17.342 179.357C13.4904 170.095 18.8631 160.614 27.6681 155.711Z" fill="#2F2E41"/>
<path d="M196.88 265.72H108.086C105.626 265.717 103.267 264.738 101.528 262.999C99.7879 261.259 98.8094 258.9 98.8066 256.44V140.553C98.8094 138.093 99.788 135.734 101.528 133.995C103.267 132.255 105.626 131.277 108.086 131.274H196.88C199.34 131.277 201.699 132.255 203.438 133.995C205.178 135.734 206.156 138.093 206.159 140.553V256.44C206.156 258.9 205.178 261.259 203.438 262.999C201.699 264.738 199.34 265.717 196.88 265.72Z" fill="#F0F0F0"/>
<path d="M196.88 266.167H108.086C105.507 266.164 103.034 265.139 101.211 263.315C99.3871 261.491 98.3613 259.019 98.3584 256.44V140.553C98.3613 137.974 99.3871 135.502 101.211 133.678C103.034 131.854 105.507 130.829 108.086 130.826H196.88C199.459 130.829 201.931 131.854 203.755 133.678C205.578 135.502 206.604 137.974 206.607 140.553V256.44C206.604 259.019 205.578 261.491 203.755 263.315C201.931 265.139 199.459 266.164 196.88 266.167ZM108.086 131.722C105.744 131.725 103.5 132.656 101.844 134.311C100.189 135.967 99.2573 138.212 99.2547 140.553V256.44C99.2573 258.781 100.189 261.026 101.844 262.681C103.5 264.337 105.744 265.268 108.086 265.271H196.88C199.221 265.268 201.466 264.337 203.121 262.682C204.777 261.026 205.708 258.781 205.711 256.44V140.553C205.708 138.212 204.777 135.967 203.121 134.311C201.466 132.656 199.221 131.725 196.88 131.722H108.086Z" fill="#6C63FF"/>
<path d="M341.131 265.72H252.337C249.877 265.717 247.518 264.738 245.779 262.999C244.039 261.259 243.06 258.9 243.058 256.44V140.553C243.06 138.093 244.039 135.734 245.779 133.995C247.518 132.255 249.877 131.277 252.337 131.274H341.131C343.591 131.277 345.95 132.255 347.689 133.995C349.429 135.734 350.407 138.093 350.41 140.553V256.44C350.407 258.9 349.429 261.259 347.689 262.999C345.95 264.738 343.591 265.717 341.131 265.72Z" fill="#F0F0F0"/>
<path d="M383.451 90.3813H76.7702C76.6513 90.3786 76.5381 90.3295 76.455 90.2445C76.3718 90.1594 76.3252 90.0452 76.3252 89.9262C76.3252 89.8073 76.3718 89.693 76.455 89.608C76.5381 89.5229 76.6513 89.4738 76.7702 89.4712H383.451C383.57 89.4738 383.683 89.5229 383.766 89.608C383.85 89.693 383.896 89.8073 383.896 89.9262C383.896 90.0452 383.85 90.1594 383.766 90.2445C383.683 90.3295 383.57 90.3786 383.451 90.3813Z" fill="#CACACA"/>
<path d="M86.7888 84.0106C89.4929 84.0106 91.685 81.7697 91.685 79.0053C91.685 76.241 89.4929 74 86.7888 74C84.0847 74 81.8926 76.241 81.8926 79.0053C81.8926 81.7697 84.0847 84.0106 86.7888 84.0106Z" fill="#3F3D56"/>
<path d="M103.703 84.0106C106.407 84.0106 108.599 81.7697 108.599 79.0053C108.599 76.241 106.407 74 103.703 74C100.999 74 98.8066 76.241 98.8066 79.0053C98.8066 81.7697 100.999 84.0106 103.703 84.0106Z" fill="#3F3D56"/>
<path d="M120.617 84.0106C123.321 84.0106 125.513 81.7697 125.513 79.0053C125.513 76.241 123.321 74 120.617 74C117.913 74 115.721 76.241 115.721 79.0053C115.721 81.7697 117.913 84.0106 120.617 84.0106Z" fill="#3F3D56"/>
<path d="M373.316 77.0613H361.298C361.06 77.0561 360.834 76.9579 360.668 76.7878C360.501 76.6177 360.408 76.3892 360.408 76.1513C360.408 75.9133 360.501 75.6848 360.668 75.5148C360.834 75.3447 361.06 75.2465 361.298 75.2412H373.316C373.554 75.2465 373.781 75.3447 373.947 75.5148C374.113 75.6848 374.207 75.9133 374.207 76.1513C374.207 76.3892 374.113 76.6177 373.947 76.7878C373.781 76.9579 373.554 77.0561 373.316 77.0613Z" fill="#3F3D56"/>
<path d="M373.316 80.4744H361.298C361.06 80.4692 360.834 80.371 360.668 80.2009C360.501 80.0308 360.408 79.8023 360.408 79.5644C360.408 79.3264 360.501 79.0979 360.668 78.9278C360.834 78.7577 361.06 78.6595 361.298 78.6543H373.316C373.554 78.6595 373.781 78.7577 373.947 78.9278C374.113 79.0979 374.207 79.3264 374.207 79.5644C374.207 79.8023 374.113 80.0308 373.947 80.2009C373.781 80.371 373.554 80.4692 373.316 80.4744Z" fill="#3F3D56"/>
<path d="M373.316 83.887H361.298C361.06 83.8818 360.834 83.7836 360.668 83.6135C360.501 83.4434 360.408 83.2149 360.408 82.977C360.408 82.739 360.501 82.5105 360.668 82.3404C360.834 82.1703 361.06 82.0721 361.298 82.0669H373.316C373.554 82.0721 373.781 82.1703 373.947 82.3404C374.113 82.5105 374.207 82.739 374.207 82.977C374.207 83.2149 374.113 83.4434 373.947 83.6135C373.781 83.7836 373.554 83.8818 373.316 83.887Z" fill="#3F3D56"/>
<path d="M346.196 129.166L346.187 129.174C345.328 128.3 344.166 127.79 342.942 127.75C341.717 127.71 340.524 128.142 339.61 128.957C338.695 129.773 338.129 130.909 338.03 132.13C337.93 133.351 338.303 134.563 339.073 135.516L339.064 135.524L345.423 142.656L352.555 136.298C353.5 135.454 354.072 134.27 354.145 133.005C354.217 131.74 353.784 130.498 352.941 129.552C352.098 128.607 350.914 128.035 349.649 127.962C348.384 127.89 347.142 128.323 346.196 129.166Z" fill="#D1D3D4"/>
<path d="M122.742 203.79C122.593 203.461 122.518 203.103 122.52 202.742C122.522 202.381 122.602 202.024 122.754 201.696L128.077 190.253C128.602 188.48 129.808 186.988 131.432 186.104C133.055 185.22 134.963 185.015 136.737 185.535C138.511 186.055 140.006 187.257 140.896 188.878C141.785 190.499 141.995 192.406 141.48 194.181L139.701 206.717C139.65 207.075 139.523 207.418 139.328 207.722C139.133 208.026 138.874 208.285 138.57 208.48C138.266 208.675 137.924 208.803 137.566 208.853C137.208 208.904 136.844 208.878 136.497 208.775L124.32 205.167C123.973 205.065 123.653 204.889 123.381 204.651C123.109 204.413 122.891 204.12 122.742 203.79Z" fill="#3F3D56"/>
<path d="M180.645 198.081L168.468 201.689C168.122 201.792 167.757 201.818 167.399 201.768C167.042 201.717 166.699 201.589 166.395 201.394C166.091 201.199 165.833 200.94 165.637 200.636C165.442 200.332 165.315 199.989 165.264 199.632L163.485 187.095C162.97 185.32 163.181 183.413 164.07 181.792C164.959 180.171 166.454 178.969 168.228 178.449C170.002 177.929 171.91 178.134 173.534 179.018C175.157 179.902 176.363 181.394 176.889 183.167L182.211 194.61C182.364 194.938 182.443 195.295 182.445 195.656C182.447 196.017 182.372 196.375 182.223 196.704C182.074 197.034 181.857 197.327 181.584 197.565C181.312 197.802 180.992 197.979 180.645 198.081Z" fill="#3F3D56"/>
<path d="M132.741 187.862L142.291 180.917L157.917 176.576L170.939 179.181L171.705 186.376C172.636 195.129 172.231 203.973 170.505 212.604L170.188 219.255L136.648 220.417L133.175 214.34C133.175 214.34 125.362 206.527 131.439 197.845L132.741 187.862Z" fill="#3F3D56"/>
<path d="M317.415 174.18V181.898L316.661 191.326C316.661 191.326 316.423 199.56 316.135 206.054C315.96 210.002 315.765 213.306 315.594 213.733C315.384 214.256 315.434 215.682 315.555 217.18C315.697 218.912 315.932 220.74 315.971 221.352C316.046 222.493 315.441 227.398 315.441 227.398C315.441 227.398 314.765 239.697 313.784 240.678C312.802 241.66 313.784 244.452 313.784 244.452C309.181 247.845 303.37 243.698 303.37 243.698C304.654 241.653 302.616 227.693 302.616 227.693C302.616 227.693 302.317 222.927 301.712 221.647C301.108 220.366 300.955 212.367 300.955 212.367V200.52C300.955 200.52 299.368 198.095 299.144 196.964C298.92 195.833 299.144 191.835 299.144 191.835L297.487 186.251L296.352 190.626C296.352 190.626 293.415 202.85 292.885 204.358C292.597 205.366 292.704 206.446 293.184 207.378C293.184 207.378 293.941 209.704 293.184 210.771C292.713 211.439 292.353 212.179 292.117 212.961C292.117 212.961 291.729 217.414 291.05 219.008C290.37 220.601 289.769 222.564 289.769 222.564C289.769 222.564 289.929 225.573 289.25 226.253C288.57 226.932 288.346 230.329 288.346 230.329C288.346 230.329 288.496 234.173 287.589 235.532C286.682 236.891 286.682 244.587 286.682 244.587C285.109 245.596 283.296 246.17 281.429 246.249C279.562 246.329 277.707 245.911 276.055 245.039C276.055 245.039 276.951 244.199 276.272 240.287C275.592 236.375 276.759 225.723 276.759 225.723C276.759 225.723 276.61 223.02 277.363 221.81C278.117 220.601 276.983 218.264 277.285 217.208C277.588 216.152 278.494 210.415 278.494 210.415C278.494 210.415 278.117 196.306 278.117 195.552C278.028 194.21 277.665 192.9 277.05 191.703C276.371 190.498 277.05 181.745 277.05 181.745C277.05 181.745 278.651 177.221 278.117 176.239C277.584 175.257 278.473 173.522 278.473 173.522C278.473 173.522 277.644 171.484 278.473 171.107C279.302 170.73 279.455 169.222 279.455 169.222L280.031 161.902C280.031 161.902 280.248 158.58 280.938 158.431C281.628 158.282 281.326 157.001 282.005 156.094C282.336 155.481 282.564 154.818 282.681 154.131C282.777 153.711 282.866 153.274 282.94 152.854C283.154 151.716 283.285 150.734 283.285 150.734C287.738 154.433 311.152 151.84 311.177 151.84C312.663 152.164 314.431 157.325 315.708 161.824C316.843 165.844 317.417 170.002 317.415 174.18Z" fill="#3F3D56"/>
<path d="M77.1465 364H90.1518C90.3446 363.65 90.5238 363.292 90.6897 362.929C92.1865 359.724 92.8184 356.148 93.4235 352.644L94.4049 346.952C91.2679 349.233 88.1322 351.513 84.9981 353.791C83.9764 354.535 82.9322 355.31 81.9508 356.148C79.8846 357.901 78.101 359.926 77.4021 362.499C77.3662 362.642 77.3303 362.785 77.3034 362.929C77.2289 363.282 77.1766 363.64 77.1465 364Z" fill="#F0F0F0"/>
<path d="M75.3222 362.929C75.3215 362.951 75.3229 362.974 75.3266 362.996C75.3701 363.339 75.4513 363.675 75.5685 364H81.4081C81.5917 363.656 81.7475 363.298 81.874 362.929C82.0514 362.437 82.179 361.928 82.255 361.41C82.449 359.651 82.3461 357.873 81.9504 356.148C81.8383 355.588 81.7173 355.024 81.5963 354.468L80.9062 351.295L77.4509 356.848C76.2946 358.707 75.0935 360.755 75.3222 362.929Z" fill="#F0F0F0"/>
<path d="M16 363.462C15.9997 363.532 16.0133 363.602 16.0399 363.667C16.0665 363.732 16.1057 363.791 16.1553 363.841C16.2048 363.891 16.2636 363.931 16.3285 363.958C16.3934 363.985 16.463 363.999 16.5333 364H98.6795C98.8215 364 98.9577 363.943 99.0581 363.843C99.1586 363.742 99.215 363.606 99.215 363.464C99.215 363.322 99.1586 363.186 99.0581 363.086C98.9577 362.985 98.8215 362.929 98.6795 362.929H16.5333C16.3919 362.929 16.2565 362.985 16.1565 363.085C16.0566 363.185 16.0003 363.321 16 363.462Z" fill="#CACACA"/>
<path d="M150.911 280.061C159.775 280.061 166.96 272.876 166.96 264.013C166.96 255.149 159.775 247.964 150.911 247.964C142.048 247.964 134.862 255.149 134.862 264.013C134.862 272.876 142.048 280.061 150.911 280.061Z" fill="#6C63FF"/>
<path d="M148.723 272.365C148.445 272.365 148.172 272.301 147.924 272.177C147.676 272.053 147.461 271.873 147.294 271.651L142.916 265.813C142.775 265.626 142.672 265.412 142.614 265.185C142.555 264.958 142.542 264.721 142.575 264.489C142.608 264.257 142.687 264.033 142.806 263.831C142.926 263.629 143.084 263.453 143.272 263.312C143.459 263.171 143.673 263.069 143.9 263.011C144.128 262.953 144.364 262.94 144.597 262.973C144.829 263.007 145.052 263.085 145.254 263.205C145.456 263.325 145.632 263.483 145.772 263.671L148.637 267.49L155.994 256.455C156.124 256.259 156.291 256.091 156.486 255.96C156.68 255.828 156.899 255.737 157.13 255.69C157.36 255.644 157.597 255.644 157.828 255.689C158.058 255.734 158.277 255.825 158.473 255.955C158.668 256.085 158.836 256.253 158.967 256.448C159.097 256.644 159.188 256.863 159.234 257.093C159.279 257.324 159.279 257.561 159.233 257.791C159.187 258.021 159.096 258.24 158.965 258.435L150.208 271.57C150.05 271.808 149.837 272.004 149.587 272.142C149.337 272.281 149.058 272.357 148.772 272.365C148.756 272.365 148.739 272.365 148.723 272.365Z" fill="white"/>
<path d="M207.055 312.516C210.273 312.516 212.881 309.907 212.881 306.69C212.881 303.472 210.273 300.864 207.055 300.864C203.838 300.864 201.229 303.472 201.229 306.69C201.229 309.907 203.838 312.516 207.055 312.516Z" fill="#F2F2F2"/>
<path d="M253.166 312.516C256.383 312.516 258.992 309.907 258.992 306.69C258.992 303.472 256.383 300.864 253.166 300.864C249.948 300.864 247.34 303.472 247.34 306.69C247.34 309.907 249.948 312.516 253.166 312.516Z" fill="#F2F2F2"/>
<path d="M228.565 312.516C231.783 312.516 234.391 309.907 234.391 306.69C234.391 303.472 231.783 300.864 228.565 300.864C225.348 300.864 222.739 303.472 222.739 306.69C222.739 309.907 225.348 312.516 228.565 312.516Z" fill="#F2F2F2"/>
</svg>
