<svg width="400" height="400" viewBox="0 0 400 400" fill="none" xmlns="http://www.w3.org/2000/svg">
<path d="M127.125 108.908C128.402 105.686 131.154 103.776 133.271 104.639C135.388 105.501 136.07 108.815 134.794 112.037C134.302 113.33 133.499 114.48 132.445 115.388L126.856 128.961L120.325 126.045L126.527 112.973C126.387 111.578 126.592 110.183 127.121 108.903L127.125 108.908Z" fill="#A0616A"/>
<path d="M103.707 195.559C103.707 195.559 94.3356 191.026 94.9854 187.772C95.6353 184.513 123.556 115.115 123.556 115.115L136.483 123.598L103.707 195.564V195.559Z" fill="#E6E6E6"/>
<path d="M244.27 364H154.628C141.589 364 130.982 353.408 130.982 340.387V106.613C130.982 93.5921 141.589 83 154.628 83H244.27C257.308 83 267.915 93.5921 267.915 106.613V340.387C267.915 353.408 257.308 364 244.27 364Z" fill="#D7D7D8"/>
<path d="M244.335 357.608H154.563C144.912 357.608 137.059 349.765 137.059 340.127V106.414C137.059 96.7769 144.912 88.9336 154.563 88.9336H244.335C253.985 88.9336 261.839 96.7769 261.839 106.414V340.127C261.839 349.765 253.985 357.608 244.335 357.608Z" fill="white"/>
<path d="M212.145 104.49H186.759C183.407 104.49 180.683 101.769 180.683 98.4224C180.683 95.0755 183.407 92.3545 186.759 92.3545H212.145C215.496 92.3545 218.221 95.0755 218.221 98.4224C218.221 101.769 215.496 104.49 212.145 104.49Z" fill="#D7D7D8"/>
<path d="M241.879 176.54H157.023C153.182 176.54 150.069 179.648 150.069 183.482C150.069 187.316 153.182 190.423 157.023 190.423H241.879C245.719 190.423 248.832 187.316 248.832 183.482C248.832 179.648 245.719 176.54 241.879 176.54Z" fill="#6C63FF"/>
<path d="M181.411 165.002H153.333C152.664 165.002 152.121 165.544 152.121 166.212C152.121 166.88 152.664 167.422 153.333 167.422H181.411C182.08 167.422 182.622 166.88 182.622 166.212C182.622 165.544 182.08 165.002 181.411 165.002Z" fill="#6C63FF"/>
<path d="M241.879 223.54H157.023C153.182 223.54 150.069 226.647 150.069 230.481C150.069 234.315 153.182 237.423 157.023 237.423H241.879C245.719 237.423 248.832 234.315 248.832 230.481C248.832 226.647 245.719 223.54 241.879 223.54Z" fill="#D7D7D8"/>
<path d="M181.411 211.997H153.333C152.664 211.997 152.121 212.539 152.121 213.207C152.121 213.875 152.664 214.417 153.333 214.417H181.411C182.08 214.417 182.622 213.875 182.622 213.207C182.622 212.539 182.08 211.997 181.411 211.997Z" fill="#D7D7D8"/>
<path d="M241.879 270.534H157.023C153.182 270.534 150.069 273.642 150.069 277.476C150.069 281.31 153.182 284.418 157.023 284.418H241.879C245.719 284.418 248.832 281.31 248.832 277.476C248.832 273.642 245.719 270.534 241.879 270.534Z" fill="#D7D7D8"/>
<path d="M181.411 258.997H153.333C152.664 258.997 152.121 259.538 152.121 260.206C152.121 260.875 152.664 261.416 153.333 261.416H181.411C182.08 261.416 182.622 260.875 182.622 260.206C182.622 259.538 182.08 258.997 181.411 258.997Z" fill="#D7D7D8"/>
<path d="M291.704 140.202C291.704 140.202 282.133 141.282 281.515 156.079C281 168.409 279.951 175.284 284.973 177.856C286.77 178.774 288.882 178.858 290.799 178.227L311.306 171.492C311.306 171.492 311.617 149.292 304.515 143.901C297.413 138.506 291.704 140.202 291.704 140.202Z" fill="#2F2E41"/>
<path d="M303.012 174.217L292.633 177.625V162.708H302.046L303.012 174.217Z" fill="#FFB6B6"/>
<path d="M271.285 258.913C270.723 262.329 268.44 264.781 266.188 264.387C263.937 263.993 262.563 260.901 263.129 257.48C263.334 256.113 263.877 254.815 264.712 253.707L267.284 239.258L274.284 240.723L271.002 254.81C271.434 256.145 271.531 257.55 271.285 258.913Z" fill="#FFB6B6"/>
<path d="M327.863 257.253C328.555 260.646 327.288 263.748 325.041 264.179C322.795 264.61 320.413 262.204 319.726 258.811C319.434 257.457 319.48 256.057 319.861 254.722L317.127 240.301L324.192 239.184L326.137 253.517C327.014 254.611 327.603 255.89 327.863 257.253Z" fill="#FFB6B6"/>
<path d="M299.108 341.23H289.388V355.003H299.108V341.23Z" fill="#FFB6B6"/>
<path d="M279.923 363.342C278.902 363.342 277.992 363.319 277.305 363.254C274.725 363.017 272.26 361.112 271.021 360C270.464 359.499 270.287 358.702 270.575 358.016C270.784 357.524 271.197 357.153 271.712 357.01L278.536 355.063L289.583 347.618L289.708 347.841C289.755 347.924 290.841 349.876 291.203 351.192C291.342 351.693 291.305 352.11 291.096 352.434C290.952 352.657 290.748 352.787 290.586 352.861C290.785 353.07 291.412 353.496 293.343 353.802C296.16 354.247 296.755 351.331 296.778 351.211L296.796 351.113L296.88 351.058C298.221 350.196 299.048 349.801 299.331 349.885C299.507 349.936 299.804 350.029 300.607 357.969C300.686 358.22 301.248 360.046 300.867 361.794C300.454 363.694 292.136 363.041 290.47 362.892C290.423 362.897 284.194 363.342 279.928 363.342H279.923Z" fill="#2F2E41"/>
<path d="M326.783 330.412L318.535 335.549L325.833 347.235L334.08 342.098L326.783 330.412Z" fill="#FFB6B6"/>
<path d="M315.833 361.455C314.691 361.455 313.642 361.316 312.894 361.186C312.161 361.057 311.585 360.472 311.465 359.74C311.381 359.212 311.534 358.679 311.896 358.285L316.654 353.028L322.085 340.874L322.308 340.994C322.391 341.04 324.346 342.121 325.353 343.048C325.738 343.4 325.928 343.775 325.919 344.16C325.914 344.429 325.812 344.642 325.71 344.795C325.989 344.869 326.745 344.897 328.546 344.137C331.174 343.029 330.134 340.238 330.087 340.123L330.05 340.03L330.092 339.942C330.774 338.5 331.262 337.731 331.55 337.652C331.731 337.601 332.028 337.522 336.915 343.84C337.115 344.007 338.559 345.263 339.162 346.946C339.817 348.777 332.413 352.62 330.923 353.371C330.877 353.408 323.129 359.031 319.945 360.63C318.683 361.265 317.188 361.46 315.828 361.46L315.833 361.455Z" fill="#2F2E41"/>
<path d="M306.265 226.061H279.05L276.581 251.343L287.387 344.758H301.28L295.724 290.805L318.26 339.515L330.607 330.884L313.01 285.409C313.01 285.409 319.295 245.794 314.356 235.925C309.417 226.061 306.265 226.061 306.265 226.061Z" fill="#2F2E41"/>
<path d="M319.8 227.605H272.57L289.55 171.802H308.382L319.8 227.605Z" fill="#6C63FF"/>
<path d="M292.521 171.812C292.521 171.812 280.791 171.501 279.556 174.589C278.322 177.671 263.812 251.047 263.812 251.047H273.383L292.526 171.812H292.521Z" fill="#6C63FF"/>
<path d="M300.152 171.877C300.152 171.877 310.485 170.57 311.72 173.652C312.954 176.735 327.465 250.11 327.465 250.11H317.893L300.152 171.877Z" fill="#6C63FF"/>
<path d="M293.918 166.838C299.63 166.838 304.26 162.214 304.26 156.51C304.26 150.806 299.63 146.182 293.918 146.182C288.206 146.182 283.576 150.806 283.576 156.51C283.576 162.214 288.206 166.838 293.918 166.838Z" fill="#FFB6B6"/>
<path d="M291.087 144.054C291.087 144.054 285.396 167.135 291.723 177.921L282.811 176.03C282.811 176.03 279.357 150.771 286.302 146.178L291.087 144.05V144.054Z" fill="#2F2E41"/>
<path d="M357 362.79C357 363.175 356.689 363.485 356.304 363.485H42.6963C42.311 363.485 42 363.175 42 362.79C42 362.405 42.311 362.095 42.6963 362.095H356.304C356.689 362.095 357 362.405 357 362.79Z" fill="#2E2E41"/>
<path d="M95.4268 163.996L107.314 167.899V150.808H96.5269L95.4268 163.996Z" fill="#A0616A"/>
<path d="M105.843 155.537C112.385 155.537 117.689 150.24 117.689 143.707C117.689 137.173 112.385 131.877 105.843 131.877C99.3006 131.877 93.9971 137.173 93.9971 143.707C93.9971 150.24 99.3006 155.537 105.843 155.537Z" fill="#A0616A"/>
<path d="M102.826 144.634L104.46 146.613L107.412 141.449C107.412 141.449 111.181 141.644 111.181 138.849C111.181 136.053 114.64 135.975 114.64 135.975C114.64 135.975 119.537 127.436 109.394 129.684C109.394 129.684 102.357 124.873 98.8621 128.984C98.8621 128.984 88.135 134.38 91.2032 143.772L96.3045 153.455L97.4603 151.263C97.4603 151.263 96.7594 142.061 102.826 144.625V144.634Z" fill="#2F2E41"/>
<path d="M91.8573 355.151H101.577V341.379H91.8573V355.151Z" fill="#A0616A"/>
<path d="M100.505 363.041C98.8434 363.189 90.5254 363.847 90.1076 361.942C89.727 360.194 90.2887 358.368 90.3676 358.118C91.1659 350.172 91.463 350.084 91.644 350.033C91.9272 349.95 92.7534 350.344 94.0949 351.206L94.1785 351.262L94.197 351.359C94.2202 351.484 94.8144 354.4 97.6319 353.95C99.5629 353.644 100.19 353.218 100.389 353.009C100.227 352.935 100.022 352.805 99.8786 352.583C99.6697 352.258 99.6325 351.841 99.7718 351.341C100.134 350.019 101.22 348.068 101.266 347.989L101.392 347.767L112.439 355.211L119.263 357.158C119.778 357.306 120.191 357.673 120.4 358.164C120.688 358.85 120.511 359.647 119.954 360.148C118.715 361.261 116.255 363.166 113.669 363.402C112.982 363.467 112.072 363.49 111.051 363.49C106.786 363.49 100.556 363.05 100.51 363.041H100.505Z" fill="#2F2E41"/>
<path d="M113.994 222.645L88.497 221.342C88.497 221.342 84.5887 236.139 89.5275 251.557L90.1216 344.401H104.53L118.112 248.627L113.994 222.645Z" fill="#2F2E41"/>
<path d="M109.691 160.714L95.6956 153.297C95.6956 153.297 80.6145 175.307 82.6987 187.229C84.7875 199.152 88.4916 221.347 88.4916 221.347L119.364 222.649L113.975 178.941L109.691 160.714Z" fill="#E6E6E6"/>
<path d="M98.7733 355.151H108.493V341.379H98.7733V355.151Z" fill="#A0616A"/>
<path d="M107.421 363.041C105.759 363.189 97.4414 363.847 97.0236 361.942C96.643 360.194 97.2047 358.368 97.2836 358.118C98.082 350.172 98.379 350.084 98.5601 350.033C98.8432 349.95 99.6694 350.344 101.011 351.206L101.094 351.262L101.113 351.359C101.136 351.484 101.73 354.4 104.548 353.95C106.479 353.644 107.106 353.218 107.305 353.009C107.143 352.935 106.938 352.805 106.795 352.583C106.586 352.258 106.549 351.841 106.688 351.341C107.05 350.019 108.136 348.068 108.182 347.989L108.308 347.767L119.355 355.211L126.179 357.158C126.694 357.306 127.107 357.673 127.316 358.164C127.604 358.85 127.427 359.647 126.87 360.148C125.631 361.261 123.171 363.166 120.585 363.402C119.898 363.467 118.989 363.49 117.967 363.49C113.702 363.49 107.472 363.05 107.426 363.041H107.421Z" fill="#2F2E41"/>
<path d="M119.365 222.645L88.4921 221.342C88.4921 221.342 84.5838 236.139 89.5226 251.557L95.4919 344.401H109.9L123.482 248.627L119.365 222.645Z" fill="#2F2E41"/>
<path d="M131.224 246.889C132.361 250.161 131.521 253.401 129.354 254.129C127.186 254.852 124.508 252.79 123.37 249.512C122.897 248.21 122.758 246.814 122.962 245.442L118.334 231.513L125.185 229.468L129.024 243.417C130.041 244.385 130.797 245.577 131.229 246.889H131.224Z" fill="#A0616A"/>
<path d="M92.3818 165.953C92.3818 165.953 102.445 163.282 104.084 166.175C105.718 169.068 129.878 239.861 129.878 239.861L114.542 241.854L92.3865 165.953H92.3818Z" fill="#E6E6E6"/>
</svg>
