<svg width="258" height="65" viewBox="0 0 258 65" fill="none" xmlns="http://www.w3.org/2000/svg">
<path d="M14.2 37.68C14.2 38.5067 14.28 39.32 14.44 40.12C14.6 40.8933 14.8667 41.6 15.24 42.24C15.64 42.8533 16.16 43.3467 16.8 43.72C17.44 44.0933 18.24 44.28 19.2 44.28C20.16 44.28 20.96 44.0933 21.6 43.72C22.2667 43.3467 22.7867 42.8533 23.16 42.24C23.56 41.6 23.84 40.8933 24 40.12C24.16 39.32 24.24 38.5067 24.24 37.68C24.24 36.8533 24.16 36.04 24 35.24C23.84 34.44 23.56 33.7333 23.16 33.12C22.7867 32.5067 22.2667 32.0133 21.6 31.64C20.96 31.24 20.16 31.04 19.2 31.04C18.24 31.04 17.44 31.24 16.8 31.64C16.16 32.0133 15.64 32.5067 15.24 33.12C14.8667 33.7333 14.6 34.44 14.44 35.24C14.28 36.04 14.2 36.8533 14.2 37.68ZM8.52 37.68C8.52 36.0267 8.77333 34.5333 9.28 33.2C9.78667 31.84 10.5067 30.6933 11.44 29.76C12.3733 28.8 13.4933 28.0667 14.8 27.56C16.1067 27.0267 17.5733 26.76 19.2 26.76C20.8267 26.76 22.2933 27.0267 23.6 27.56C24.9333 28.0667 26.0667 28.8 27 29.76C27.9333 30.6933 28.6533 31.84 29.16 33.2C29.6667 34.5333 29.92 36.0267 29.92 37.68C29.92 39.3333 29.6667 40.8267 29.16 42.16C28.6533 43.4933 27.9333 44.64 27 45.6C26.0667 46.5333 24.9333 47.2533 23.6 47.76C22.2933 48.2667 20.8267 48.52 19.2 48.52C17.5733 48.52 16.1067 48.2667 14.8 47.76C13.4933 47.2533 12.3733 46.5333 11.44 45.6C10.5067 44.64 9.78667 43.4933 9.28 42.16C8.77333 40.8267 8.52 39.3333 8.52 37.68ZM52.2131 48H46.8131V45.12H46.6931C45.9731 46.32 45.0398 47.1867 43.8931 47.72C42.7465 48.2533 41.5731 48.52 40.3731 48.52C38.8531 48.52 37.5998 48.32 36.6131 47.92C35.6531 47.52 34.8931 46.96 34.3331 46.24C33.7731 45.4933 33.3731 44.6 33.1331 43.56C32.9198 42.4933 32.8131 41.32 32.8131 40.04V27.32H38.4931V39C38.4931 40.7067 38.7598 41.9867 39.2931 42.84C39.8265 43.6667 40.7731 44.08 42.1331 44.08C43.6798 44.08 44.7998 43.6267 45.4931 42.72C46.1865 41.7867 46.5331 40.2667 46.5331 38.16V27.32H52.2131V48ZM55.7241 27.32H61.1241V31.16H61.2041C61.4707 30.52 61.8307 29.9333 62.2841 29.4C62.7374 28.84 63.2574 28.3733 63.8441 28C64.4307 27.6 65.0574 27.2933 65.7241 27.08C66.3907 26.8667 67.0841 26.76 67.8041 26.76C68.1774 26.76 68.5907 26.8267 69.0441 26.96V32.24C68.7774 32.1867 68.4574 32.1467 68.0841 32.12C67.7107 32.0667 67.3507 32.04 67.0041 32.04C65.9641 32.04 65.0841 32.2133 64.3641 32.56C63.6441 32.9067 63.0574 33.3867 62.6041 34C62.1774 34.5867 61.8707 35.28 61.6841 36.08C61.4974 36.88 61.4041 37.7467 61.4041 38.68V48H55.7241V27.32Z" fill="#323244"/>
<path d="M70.2309 33.68C70.3109 32.3467 70.6443 31.24 71.2309 30.36C71.8176 29.48 72.5643 28.7733 73.4709 28.24C74.3776 27.7067 75.3909 27.3333 76.5109 27.12C77.6576 26.88 78.8043 26.76 79.9509 26.76C80.9909 26.76 82.0443 26.84 83.1109 27C84.1776 27.1333 85.1509 27.4133 86.0309 27.84C86.9109 28.2667 87.6309 28.8667 88.1909 29.64C88.7509 30.3867 89.0309 31.3867 89.0309 32.64V43.4C89.0309 44.3333 89.0843 45.2267 89.1909 46.08C89.2976 46.9333 89.4843 47.5733 89.7509 48H83.9909C83.8843 47.68 83.7909 47.36 83.7109 47.04C83.6576 46.6933 83.6176 46.3467 83.5909 46C82.6843 46.9333 81.6176 47.5867 80.3909 47.96C79.1643 48.3333 77.9109 48.52 76.6309 48.52C75.6443 48.52 74.7243 48.4 73.8709 48.16C73.0176 47.92 72.2709 47.5467 71.6309 47.04C70.9909 46.5333 70.4843 45.8933 70.1109 45.12C69.7643 44.3467 69.5909 43.4267 69.5909 42.36C69.5909 41.1867 69.7909 40.2267 70.1909 39.48C70.6176 38.7067 71.1509 38.0933 71.7909 37.64C72.4576 37.1867 73.2043 36.8533 74.0309 36.64C74.8843 36.4 75.7376 36.2133 76.5909 36.08C77.4443 35.9467 78.2843 35.84 79.1109 35.76C79.9376 35.68 80.6709 35.56 81.3109 35.4C81.9509 35.24 82.4576 35.0133 82.8309 34.72C83.2043 34.4 83.3776 33.9467 83.3509 33.36C83.3509 32.7467 83.2443 32.2667 83.0309 31.92C82.8443 31.5467 82.5776 31.2667 82.2309 31.08C81.9109 30.8667 81.5243 30.7333 81.0709 30.68C80.6443 30.6 80.1776 30.56 79.6709 30.56C78.5509 30.56 77.6709 30.8 77.0309 31.28C76.3909 31.76 76.0176 32.56 75.9109 33.68H70.2309ZM83.3509 37.88C83.1109 38.0933 82.8043 38.2667 82.4309 38.4C82.0843 38.5067 81.6976 38.6 81.2709 38.68C80.8709 38.76 80.4443 38.8267 79.9909 38.88C79.5376 38.9333 79.0843 39 78.6309 39.08C78.2043 39.16 77.7776 39.2667 77.3509 39.4C76.9509 39.5333 76.5909 39.72 76.2709 39.96C75.9776 40.1733 75.7376 40.4533 75.5509 40.8C75.3643 41.1467 75.2709 41.5867 75.2709 42.12C75.2709 42.6267 75.3643 43.0533 75.5509 43.4C75.7376 43.7467 75.9909 44.0267 76.3109 44.24C76.6309 44.4267 77.0043 44.56 77.4309 44.64C77.8576 44.72 78.2976 44.76 78.7509 44.76C79.8709 44.76 80.7376 44.5733 81.3509 44.2C81.9643 43.8267 82.4176 43.3867 82.7109 42.88C83.0043 42.3467 83.1776 41.8133 83.2309 41.28C83.3109 40.7467 83.3509 40.32 83.3509 40V37.88ZM103.08 44.28C104.013 44.28 104.786 44.0933 105.4 43.72C106.04 43.3467 106.546 42.8667 106.92 42.28C107.32 41.6667 107.6 40.96 107.76 40.16C107.92 39.36 108 38.5467 108 37.72C108 36.8933 107.906 36.08 107.72 35.28C107.56 34.48 107.28 33.7733 106.88 33.16C106.48 32.52 105.96 32.0133 105.32 31.64C104.706 31.24 103.946 31.04 103.04 31.04C102.106 31.04 101.32 31.24 100.68 31.64C100.066 32.0133 99.5597 32.5067 99.1597 33.12C98.7864 33.7333 98.5197 34.44 98.3597 35.24C98.1997 36.04 98.1197 36.8667 98.1197 37.72C98.1197 38.5467 98.1997 39.36 98.3597 40.16C98.5464 40.96 98.8264 41.6667 99.1997 42.28C99.5997 42.8667 100.12 43.3467 100.76 43.72C101.4 44.0933 102.173 44.28 103.08 44.28ZM92.6397 27.32H98.0397V29.96H98.1197C98.813 28.84 99.693 28.0267 100.76 27.52C101.826 27.0133 103 26.76 104.28 26.76C105.906 26.76 107.306 27.0667 108.48 27.68C109.653 28.2933 110.626 29.1067 111.4 30.12C112.173 31.1333 112.746 32.32 113.12 33.68C113.493 35.0133 113.68 36.4133 113.68 37.88C113.68 39.2667 113.493 40.6 113.12 41.88C112.746 43.16 112.173 44.2933 111.4 45.28C110.653 46.2667 109.706 47.0533 108.56 47.64C107.44 48.2267 106.12 48.52 104.6 48.52C103.32 48.52 102.133 48.2667 101.04 47.76C99.973 47.2267 99.093 46.4533 98.3997 45.44H98.3197V55.24H92.6397V27.32ZM126.733 44.28C127.666 44.28 128.439 44.0933 129.053 43.72C129.693 43.3467 130.199 42.8667 130.573 42.28C130.973 41.6667 131.253 40.96 131.413 40.16C131.573 39.36 131.653 38.5467 131.653 37.72C131.653 36.8933 131.559 36.08 131.373 35.28C131.213 34.48 130.933 33.7733 130.533 33.16C130.133 32.52 129.613 32.0133 128.973 31.64C128.359 31.24 127.599 31.04 126.693 31.04C125.759 31.04 124.973 31.24 124.333 31.64C123.719 32.0133 123.213 32.5067 122.813 33.12C122.439 33.7333 122.173 34.44 122.013 35.24C121.853 36.04 121.773 36.8667 121.773 37.72C121.773 38.5467 121.853 39.36 122.013 40.16C122.199 40.96 122.479 41.6667 122.853 42.28C123.253 42.8667 123.773 43.3467 124.413 43.72C125.053 44.0933 125.826 44.28 126.733 44.28ZM116.293 27.32H121.693V29.96H121.773C122.466 28.84 123.346 28.0267 124.413 27.52C125.479 27.0133 126.653 26.76 127.933 26.76C129.559 26.76 130.959 27.0667 132.133 27.68C133.306 28.2933 134.279 29.1067 135.053 30.12C135.826 31.1333 136.399 32.32 136.773 33.68C137.146 35.0133 137.333 36.4133 137.333 37.88C137.333 39.2667 137.146 40.6 136.773 41.88C136.399 43.16 135.826 44.2933 135.053 45.28C134.306 46.2667 133.359 47.0533 132.213 47.64C131.093 48.2267 129.773 48.52 128.253 48.52C126.973 48.52 125.786 48.2667 124.693 47.76C123.626 47.2267 122.746 46.4533 122.053 45.44H121.973V55.24H116.293V27.32Z" fill="url(#paint0_linear_1047_19)"/>
<path d="M141.374 48.2216C140.69 48.2216 140.104 47.9769 139.615 47.4876C139.125 46.9982 138.881 46.4119 138.881 45.7287C138.881 45.0455 139.125 44.4592 139.615 43.9698C140.104 43.4805 140.69 43.2358 141.374 43.2358C142.057 43.2358 142.643 43.4805 143.132 43.9698C143.622 44.4592 143.866 45.0455 143.866 45.7287C143.866 46.1811 143.751 46.5966 143.52 46.9751C143.299 47.3537 142.999 47.6584 142.62 47.8892C142.251 48.1108 141.835 48.2216 141.374 48.2216ZM162.85 31.4915L159.914 32.3224C159.729 31.8331 159.457 31.3576 159.097 30.896C158.746 30.4251 158.266 30.0373 157.656 29.7326C157.047 29.4279 156.267 29.2756 155.316 29.2756C154.014 29.2756 152.929 29.5756 152.061 30.1758C151.203 30.7667 150.773 31.5192 150.773 32.4332C150.773 33.2457 151.069 33.8874 151.66 34.3583C152.25 34.8292 153.174 35.2216 154.429 35.5355L157.587 36.3111C159.489 36.7727 160.906 37.479 161.839 38.43C162.771 39.3718 163.238 40.5859 163.238 42.0724C163.238 43.2912 162.887 44.3807 162.185 45.3409C161.493 46.3011 160.523 47.0582 159.277 47.6122C158.03 48.1662 156.581 48.4432 154.928 48.4432C152.758 48.4432 150.962 47.9723 149.541 47.0305C148.119 46.0888 147.219 44.7131 146.84 42.9034L149.942 42.1278C150.238 43.2727 150.796 44.1314 151.618 44.7038C152.449 45.2763 153.534 45.5625 154.873 45.5625C156.396 45.5625 157.606 45.2393 158.501 44.593C159.406 43.9375 159.858 43.1527 159.858 42.2386C159.858 41.5 159.6 40.8814 159.083 40.3828C158.566 39.875 157.772 39.4964 156.701 39.2472L153.155 38.4162C151.207 37.9545 149.776 37.239 148.862 36.2695C147.957 35.2908 147.505 34.0675 147.505 32.5994C147.505 31.3991 147.842 30.3374 148.516 29.4141C149.199 28.4908 150.127 27.766 151.299 27.2397C152.481 26.7134 153.82 26.4503 155.316 26.4503C157.421 26.4503 159.074 26.9119 160.274 27.8352C161.483 28.7585 162.342 29.9773 162.85 31.4915ZM175.459 26.7273V29.4972H164.435V26.7273H175.459ZM167.648 21.6307H170.916V41.9062C170.916 42.8295 171.05 43.522 171.318 43.9837C171.595 44.4361 171.946 44.7408 172.371 44.8977C172.805 45.0455 173.262 45.1193 173.742 45.1193C174.102 45.1193 174.397 45.1009 174.628 45.0639C174.859 45.0178 175.044 44.9808 175.182 44.9531L175.847 47.8892C175.625 47.9723 175.316 48.0554 174.919 48.1385C174.522 48.2308 174.019 48.277 173.409 48.277C172.486 48.277 171.581 48.0785 170.695 47.6815C169.818 47.2844 169.088 46.6797 168.507 45.8672C167.934 45.0547 167.648 44.0298 167.648 42.7926V21.6307ZM191.832 39.3026V26.7273H195.1V48H191.832V44.3991H191.61C191.112 45.4794 190.336 46.3981 189.284 47.1552C188.231 47.9031 186.902 48.277 185.295 48.277C183.965 48.277 182.784 47.9862 181.75 47.4045C180.715 46.8136 179.903 45.9272 179.312 44.7454C178.721 43.5543 178.426 42.054 178.426 40.2443V26.7273H181.694V40.0227C181.694 41.5739 182.128 42.8111 182.996 43.7344C183.873 44.6577 184.99 45.1193 186.348 45.1193C187.16 45.1193 187.986 44.9116 188.827 44.4961C189.676 44.0806 190.387 43.4435 190.959 42.5849C191.541 41.7262 191.832 40.6321 191.832 39.3026ZM207.169 48.4432C205.397 48.4432 203.832 47.9954 202.475 47.0998C201.117 46.195 200.055 44.9208 199.289 43.2773C198.523 41.6246 198.14 39.6719 198.14 37.419C198.14 35.1847 198.523 33.2457 199.289 31.6023C200.055 29.9588 201.122 28.6893 202.488 27.7937C203.855 26.8981 205.434 26.4503 207.225 26.4503C208.61 26.4503 209.704 26.6811 210.507 27.1428C211.32 27.5952 211.938 28.1122 212.363 28.6939C212.797 29.2663 213.134 29.7372 213.374 30.1065H213.651V19.6364H216.919V48H213.762V44.7315H213.374C213.134 45.1193 212.792 45.6087 212.349 46.1996C211.906 46.7812 211.274 47.3029 210.452 47.7646C209.63 48.217 208.536 48.4432 207.169 48.4432ZM207.613 45.5071C208.924 45.5071 210.032 45.1655 210.937 44.4822C211.841 43.7898 212.529 42.8342 213 41.6154C213.471 40.3874 213.706 38.9702 213.706 37.3636C213.706 35.7756 213.476 34.386 213.014 33.195C212.552 31.9947 211.869 31.0621 210.964 30.3974C210.059 29.7234 208.942 29.3864 207.613 29.3864C206.228 29.3864 205.074 29.7418 204.15 30.4528C203.236 31.1545 202.548 32.1101 202.087 33.3196C201.634 34.5199 201.408 35.8679 201.408 37.3636C201.408 38.8778 201.639 40.2536 202.101 41.4908C202.571 42.7187 203.264 43.6974 204.178 44.4268C205.101 45.147 206.246 45.5071 207.613 45.5071ZM221.409 48V26.7273H224.678V48H221.409ZM223.071 23.1818C222.434 23.1818 221.885 22.9648 221.423 22.5309C220.971 22.0969 220.745 21.5753 220.745 20.9659C220.745 20.3565 220.971 19.8349 221.423 19.4009C221.885 18.967 222.434 18.75 223.071 18.75C223.708 18.75 224.253 18.967 224.706 19.4009C225.167 19.8349 225.398 20.3565 225.398 20.9659C225.398 21.5753 225.167 22.0969 224.706 22.5309C224.253 22.9648 223.708 23.1818 223.071 23.1818ZM237.356 48.4432C235.436 48.4432 233.751 47.9862 232.301 47.0721C230.861 46.158 229.735 44.8793 228.922 43.2358C228.119 41.5923 227.717 39.6719 227.717 37.4744C227.717 35.2585 228.119 33.3242 228.922 31.6715C229.735 30.0188 230.861 28.7354 232.301 27.8214C233.751 26.9073 235.436 26.4503 237.356 26.4503C239.277 26.4503 240.957 26.9073 242.398 27.8214C243.847 28.7354 244.974 30.0188 245.777 31.6715C246.589 33.3242 246.996 35.2585 246.996 37.4744C246.996 39.6719 246.589 41.5923 245.777 43.2358C244.974 44.8793 243.847 46.158 242.398 47.0721C240.957 47.9862 239.277 48.4432 237.356 48.4432ZM237.356 45.5071C238.815 45.5071 240.015 45.1332 240.957 44.3853C241.899 43.6374 242.596 42.6541 243.048 41.4354C243.501 40.2166 243.727 38.8963 243.727 37.4744C243.727 36.0526 243.501 34.7276 243.048 33.4996C242.596 32.2717 241.899 31.2791 240.957 30.522C240.015 29.7649 238.815 29.3864 237.356 29.3864C235.898 29.3864 234.697 29.7649 233.756 30.522C232.814 31.2791 232.117 32.2717 231.664 33.4996C231.212 34.7276 230.986 36.0526 230.986 37.4744C230.986 38.8963 231.212 40.2166 231.664 41.4354C232.117 42.6541 232.814 43.6374 233.756 44.3853C234.697 45.1332 235.898 45.5071 237.356 45.5071Z" fill="#323244"/>
<defs>
<linearGradient id="paint0_linear_1047_19" x1="34.1083" y1="40.625" x2="89.6363" y2="45.7712" gradientUnits="userSpaceOnUse">
<stop offset="0.20694" stop-color="#5049BF"/>
<stop offset="1" stop-color="#4F46E5"/>
</linearGradient>
</defs>
</svg>
